<?xml version="1.0" encoding="UTF-8" standalone="no"?>
<!-- Created with Inkscape (http://www.inkscape.org/) -->

<svg
   width="113.97701mm"
   height="34.752357mm"
   viewBox="0 0 113.97701 34.752359"
   version="1.1"
   id="svg1"
   xmlns="http://www.w3.org/2000/svg"
   xmlns:svg="http://www.w3.org/2000/svg">
  <defs
     id="defs1">
    <clipPath
       clipPathUnits="userSpaceOnUse"
       id="clipPath1984">
      <path
         d="M 0,500 H 500 V 0 H 0 Z"
         transform="translate(-357.21061,-197.85221)"
         id="path1984" />
    </clipPath>
    <clipPath
       clipPathUnits="userSpaceOnUse"
       id="clipPath1986">
      <path
         d="M 0,500 H 500 V 0 H 0 Z"
         transform="translate(-340.99381,-182.1413)"
         id="path1986" />
    </clipPath>
    <clipPath
       clipPathUnits="userSpaceOnUse"
       id="clipPath1988">
      <path
         d="M 0,500 H 500 V 0 H 0 Z"
         transform="translate(-312.24181,-202.3356)"
         id="path1988" />
    </clipPath>
    <clipPath
       clipPathUnits="userSpaceOnUse"
       id="clipPath1990">
      <path
         d="M 0,500 H 500 V 0 H 0 Z"
         transform="translate(-310.03771,-183.03191)"
         id="path1990" />
    </clipPath>
    <clipPath
       clipPathUnits="userSpaceOnUse"
       id="clipPath1992">
      <path
         d="M 0,500 H 500 V 0 H 0 Z"
         transform="translate(-354.27701,-207.8688)"
         id="path1992" />
    </clipPath>
    <clipPath
       clipPathUnits="userSpaceOnUse"
       id="clipPath1994">
      <path
         d="M 0,500 H 500 V 0 H 0 Z"
         transform="translate(-279.20961,-203.54271)"
         id="path1994" />
    </clipPath>
    <clipPath
       clipPathUnits="userSpaceOnUse"
       id="clipPath1996">
      <path
         d="M 0,500 H 500 V 0 H 0 Z"
         transform="translate(-279.34341,-204.01241)"
         id="path1996" />
    </clipPath>
    <clipPath
       clipPathUnits="userSpaceOnUse"
       id="clipPath1998">
      <path
         d="M 0,500 H 500 V 0 H 0 Z"
         transform="translate(-333.37071,-190.4108)"
         id="path1998" />
    </clipPath>
    <clipPath
       clipPathUnits="userSpaceOnUse"
       id="clipPath2000">
      <path
         d="M 0,500 H 500 V 0 H 0 Z"
         transform="translate(-318.69891,-184.6442)"
         id="path2000" />
    </clipPath>
    <clipPath
       clipPathUnits="userSpaceOnUse"
       id="clipPath2002">
      <path
         d="M 0,500 H 500 V 0 H 0 Z"
         transform="translate(-284.76531,-188.9997)"
         id="path2002" />
    </clipPath>
    <clipPath
       clipPathUnits="userSpaceOnUse"
       id="clipPath2004">
      <path
         d="M 0,500 H 500 V 0 H 0 Z"
         transform="translate(-284.8639,-188.4128)"
         id="path2004" />
    </clipPath>
    <clipPath
       clipPathUnits="userSpaceOnUse"
       id="clipPath2006">
      <path
         d="M 0,500 H 500 V 0 H 0 Z"
         transform="translate(-285.33751,-188.655)"
         id="path2006" />
    </clipPath>
    <clipPath
       clipPathUnits="userSpaceOnUse"
       id="clipPath2008">
      <path
         d="M 0,500 H 500 V 0 H 0 Z"
         transform="translate(-352.57681,-188.7897)"
         id="path2008" />
    </clipPath>
    <clipPath
       clipPathUnits="userSpaceOnUse"
       id="clipPath2010">
      <path
         d="M 0,500 H 500 V 0 H 0 Z"
         transform="translate(-352.55241,-188.8991)"
         id="path2010" />
    </clipPath>
    <clipPath
       clipPathUnits="userSpaceOnUse"
       id="clipPath2012">
      <path
         d="M 0,500 H 500 V 0 H 0 Z"
         transform="translate(-362.61681,-196.5554)"
         id="path2012" />
    </clipPath>
    <clipPath
       clipPathUnits="userSpaceOnUse"
       id="clipPath2014">
      <path
         d="M 0,500 H 500 V 0 H 0 Z"
         transform="translate(-363.26231,-196.7624)"
         id="path2014" />
    </clipPath>
    <clipPath
       clipPathUnits="userSpaceOnUse"
       id="clipPath2016">
      <path
         d="M 0,500 H 500 V 0 H 0 Z"
         transform="translate(-272.75451,-191.487)"
         id="path2016" />
    </clipPath>
    <clipPath
       clipPathUnits="userSpaceOnUse"
       id="clipPath2018">
      <path
         d="M 0,500 H 500 V 0 H 0 Z"
         transform="translate(-274.40781,-191.3513)"
         id="path2018" />
    </clipPath>
    <clipPath
       clipPathUnits="userSpaceOnUse"
       id="clipPath2020">
      <path
         d="M 0,500 H 500 V 0 H 0 Z"
         transform="translate(-146.236,-198.6755)"
         id="path2020" />
    </clipPath>
    <clipPath
       clipPathUnits="userSpaceOnUse"
       id="clipPath2022">
      <path
         d="M 0,500 H 500 V 0 H 0 Z"
         transform="translate(-161.7819,-182.1413)"
         id="path2022" />
    </clipPath>
    <clipPath
       clipPathUnits="userSpaceOnUse"
       id="clipPath2024">
      <path
         d="M 0,500 H 500 V 0 H 0 Z"
         transform="translate(-190.5343,-202.3356)"
         id="path2024" />
    </clipPath>
    <clipPath
       clipPathUnits="userSpaceOnUse"
       id="clipPath2026">
      <path
         d="M 0,500 H 500 V 0 H 0 Z"
         transform="translate(-191.8546,-183.9216)"
         id="path2026" />
    </clipPath>
    <clipPath
       clipPathUnits="userSpaceOnUse"
       id="clipPath2028">
      <path
         d="M 0,500 H 500 V 0 H 0 Z"
         transform="translate(-148.49871,-207.8688)"
         id="path2028" />
    </clipPath>
    <clipPath
       clipPathUnits="userSpaceOnUse"
       id="clipPath2030">
      <path
         d="M 0,500 H 500 V 0 H 0 Z"
         transform="translate(-224.06901,-203.71061)"
         id="path2030" />
    </clipPath>
    <clipPath
       clipPathUnits="userSpaceOnUse"
       id="clipPath2032">
      <path
         d="M 0,500 H 500 V 0 H 0 Z"
         transform="translate(-223.9249,-204.2097)"
         id="path2032" />
    </clipPath>
    <clipPath
       clipPathUnits="userSpaceOnUse"
       id="clipPath2034">
      <path
         d="M 0,500 H 500 V 0 H 0 Z"
         transform="translate(-168.8908,-190.2809)"
         id="path2034" />
    </clipPath>
    <clipPath
       clipPathUnits="userSpaceOnUse"
       id="clipPath2036">
      <path
         d="M 0,500 H 500 V 0 H 0 Z"
         transform="translate(-184.4953,-184.31711)"
         id="path2036" />
    </clipPath>
    <clipPath
       clipPathUnits="userSpaceOnUse"
       id="clipPath2038">
      <path
         d="M 0,500 H 500 V 0 H 0 Z"
         transform="translate(-217.50361,-189.15791)"
         id="path2038" />
    </clipPath>
    <clipPath
       clipPathUnits="userSpaceOnUse"
       id="clipPath2040">
      <path
         d="M 0,500 H 500 V 0 H 0 Z"
         transform="translate(-217.4386,-188.654)"
         id="path2040" />
    </clipPath>
    <clipPath
       clipPathUnits="userSpaceOnUse"
       id="clipPath2042">
      <path
         d="M 0,500 H 500 V 0 H 0 Z"
         transform="translate(-216.9328,-188.4938)"
         id="path2042" />
    </clipPath>
    <clipPath
       clipPathUnits="userSpaceOnUse"
       id="clipPath2044">
      <path
         d="M 0,500 H 500 V 0 H 0 Z"
         transform="translate(-150.30381,-189.57881)"
         id="path2044" />
    </clipPath>
    <clipPath
       clipPathUnits="userSpaceOnUse"
       id="clipPath2046">
      <path
         d="M 0,500 H 500 V 0 H 0 Z"
         transform="translate(-150.1452,-189.6911)"
         id="path2046" />
    </clipPath>
    <clipPath
       clipPathUnits="userSpaceOnUse"
       id="clipPath2048">
      <path
         d="M 0,500 H 500 V 0 H 0 Z"
         transform="translate(-140.6491,-197.18231)"
         id="path2048" />
    </clipPath>
    <clipPath
       clipPathUnits="userSpaceOnUse"
       id="clipPath2050">
      <path
         d="M 0,500 H 500 V 0 H 0 Z"
         transform="translate(-139.798,-197.5056)"
         id="path2050" />
    </clipPath>
    <clipPath
       clipPathUnits="userSpaceOnUse"
       id="clipPath2052">
      <path
         d="M 0,500 H 500 V 0 H 0 Z"
         transform="translate(-229.5724,-192.1442)"
         id="path2052" />
    </clipPath>
    <clipPath
       clipPathUnits="userSpaceOnUse"
       id="clipPath2054">
      <path
         d="M 0,500 H 500 V 0 H 0 Z"
         transform="translate(-228.71841,-190.6364)"
         id="path2054" />
    </clipPath>
  </defs>
  <g
     id="layer1"
     transform="translate(-45.994203,-129.10653)">
    <path
       id="path1983"
       d="M 0,0 C 0.797,0.694 1.452,1.266 2.018,1.758 2.157,1.883 2.297,1.996 2.421,2.117 2.544,2.239 2.661,2.357 2.775,2.472 3.004,2.7 3.216,2.913 3.419,3.116 3.823,3.523 4.188,3.892 4.562,4.268 4.92,4.659 5.269,5.073 5.678,5.537 6.391,6.471 6.781,7.104 6.35,6.91 5.949,6.729 5.123,5.956 4.213,5.027 3.747,4.572 3.223,4.114 2.738,3.65 2.245,3.196 1.797,2.73 1.359,2.389 0.968,2.059 0.576,1.729 0.184,1.397 -0.212,1.07 -0.588,0.719 -1.009,0.422 l -1.232,-0.928 c -0.417,-0.302 -0.81,-0.637 -1.248,-0.906 -0.555,-0.383 -1.029,-0.709 -1.484,-1.023 -0.226,-0.157 -0.449,-0.311 -0.674,-0.467 -0.228,-0.154 -0.47,-0.289 -0.718,-0.442 -0.499,-0.299 -1.043,-0.625 -1.697,-1.015 -0.322,-0.204 -0.693,-0.384 -1.097,-0.591 -0.405,-0.205 -0.847,-0.429 -1.334,-0.675 -0.33,-0.161 -0.63,-0.332 -0.93,-0.456 -0.298,-0.129 -0.577,-0.249 -0.841,-0.363 -0.527,-0.228 -0.99,-0.429 -1.412,-0.612 -0.417,-0.192 -0.809,-0.325 -1.176,-0.459 -0.367,-0.134 -0.711,-0.26 -1.056,-0.386 -0.346,-0.126 -0.691,-0.252 -1.058,-0.386 -0.369,-0.126 -0.769,-0.234 -1.209,-0.367 -0.881,-0.258 -1.929,-0.604 -3.37,-0.903 -0.718,-0.156 -1.341,-0.323 -1.907,-0.413 -0.568,-0.087 -1.068,-0.164 -1.521,-0.233 -0.454,-0.067 -0.863,-0.126 -1.249,-0.182 -0.388,-0.038 -0.755,-0.06 -1.121,-0.09 -0.365,-0.027 -0.731,-0.055 -1.12,-0.085 -0.194,-0.015 -0.393,-0.032 -0.602,-0.048 -0.208,-0.021 -0.425,-0.036 -0.655,-0.036 -0.457,-0.012 -0.961,-0.026 -1.533,-0.042 -0.572,-0.009 -1.212,-0.065 -1.944,-0.026 -1.463,0.043 -2.564,0.034 -3.474,0.141 -0.911,0.081 -1.643,0.117 -2.372,0.199 -0.364,0.048 -0.728,0.095 -1.114,0.145 -0.387,0.051 -0.797,0.103 -1.248,0.188 -0.452,0.08 -0.949,0.169 -1.515,0.269 -0.561,0.122 -1.189,0.258 -1.908,0.414 -1.432,0.342 -2.5,0.624 -3.383,0.887 -0.886,0.249 -1.587,0.483 -2.289,0.705 -1.402,0.462 -2.806,0.923 -5.61,1.845 -2.809,0.924 -4.227,1.359 -5.65,1.777 -0.713,0.208 -1.425,0.415 -2.314,0.675 -0.89,0.263 -1.962,0.565 -3.393,0.964 -0.719,0.189 -1.347,0.355 -1.909,0.502 -0.564,0.137 -1.062,0.257 -1.514,0.365 -0.901,0.226 -1.634,0.377 -2.366,0.524 -1.465,0.277 -2.937,0.565 -5.923,0.761 -1.493,0.087 -2.617,0.085 -3.551,0.067 -0.469,-0.007 -0.89,-0.023 -1.287,-0.046 -0.398,-0.016 -0.771,-0.045 -1.145,-0.074 -0.747,-0.057 -1.492,-0.14 -2.421,-0.271 -0.927,-0.143 -2.04,-0.327 -3.497,-0.703 -2.523,-0.672 -3.887,-1.287 -5.089,-1.853 -1.192,-0.592 -2.244,-1.153 -3.87,-2.352 -1.053,-0.83 -1.98,-1.772 -2.621,-2.593 -0.661,-0.889 -0.61,-1.013 -0.244,-0.765 0.186,0.122 0.442,0.346 0.749,0.601 0.314,0.247 0.648,0.556 1.006,0.83 1.818,1.498 3.976,2.843 6.329,3.846 2.346,1.012 4.87,1.69 7.308,2.038 0.245,0.029 1.38,0.201 2.931,0.293 1.549,0.104 3.51,0.104 5.376,-0.003 2.923,-0.194 4.371,-0.451 5.815,-0.696 0.722,-0.132 1.44,-0.266 2.335,-0.48 0.448,-0.104 0.94,-0.219 1.499,-0.35 0.556,-0.145 1.179,-0.307 1.892,-0.493 1.418,-0.396 2.479,-0.705 3.36,-0.978 0.883,-0.265 1.584,-0.496 2.288,-0.718 1.406,-0.461 2.811,-0.921 5.621,-1.843 2.816,-0.921 4.231,-1.371 5.653,-1.799 0.712,-0.213 1.421,-0.433 2.319,-0.675 0.894,-0.255 1.976,-0.533 3.424,-0.879 2.905,-0.672 4.398,-0.824 5.877,-1.014 0.742,-0.076 1.489,-0.113 2.418,-0.191 0.929,-0.106 2.049,-0.091 3.539,-0.137 0.746,-0.039 1.397,0.024 1.979,0.034 0.582,0.022 1.095,0.04 1.561,0.057 0.93,0.057 1.67,0.152 2.413,0.216 0.371,0.038 0.743,0.064 1.136,0.115 0.391,0.063 0.805,0.129 1.265,0.203 0.46,0.074 0.967,0.157 1.542,0.251 0.574,0.1 1.207,0.266 1.934,0.426 1.462,0.304 2.525,0.659 3.421,0.918 0.445,0.136 0.852,0.241 1.226,0.374 0.372,0.135 0.722,0.263 1.072,0.39 1.405,0.497 2.804,1.024 5.495,2.31 0.666,0.334 1.249,0.627 1.77,0.888 0.524,0.256 0.955,0.535 1.366,0.757 0.406,0.229 0.771,0.435 1.117,0.629 0.347,0.192 0.674,0.373 0.983,0.582 0.628,0.404 1.256,0.809 2.041,1.314 0.397,0.248 0.792,0.578 1.264,0.923 0.465,0.353 0.985,0.75 1.58,1.202"
       style="fill:#4e6045;fill-opacity:1;fill-rule:nonzero;stroke:none"
       transform="matrix(0.35277776,0,0,-0.35277776,141.97242,145.39787)"
       clip-path="url(#clipPath1984)" />
    <path
       id="path1985"
       d="M 0,0 C 0.247,-0.141 0.426,-0.247 0.515,-0.403 0.69,-0.727 0.598,-1.076 0.263,-1.154 0.001,-1.217 -0.472,-1.145 -0.593,-0.961 -0.755,-0.723 -0.666,-0.312 -0.306,-0.13 -0.203,-0.083 -0.103,-0.048 0,0 m -9.369,-3.08 c 0.027,-0.449 0.069,-0.78 0.111,-1.111 0.003,-0.073 -0.017,-0.142 -0.027,-0.213 -0.056,0.031 -0.163,0.045 -0.194,0.085 -0.425,0.91 -0.902,1.801 -0.878,2.835 -0.004,0.157 0.124,0.309 0.19,0.458 0.08,-0.131 0.198,-0.243 0.241,-0.381 0.195,-0.555 0.375,-1.12 0.557,-1.673 M 1.498,0.411 C 1.355,0.429 1.344,0.431 1.32,0.434 1.128,0.434 0.923,0.436 0.73,0.437 0.891,0.561 1.063,0.684 1.224,0.808 1.304,0.869 1.386,0.943 1.455,1.019 1.342,1.069 1.223,1.181 1.112,1.159 0.99,1.15 0.889,1.019 0.782,0.936 0.634,0.811 0.485,0.685 0.324,0.561 0.342,0.787 0.256,1.063 0.36,1.219 0.656,1.65 0.997,2.053 1.369,2.415 1.467,2.523 1.844,2.547 1.916,2.454 2.122,2.187 2.427,1.834 2.389,1.538 2.311,0.825 2.501,0.717 3.115,0.999 3.191,1.025 3.5,0.806 3.511,0.696 3.572,-0.047 2.942,-0.353 2.448,-0.639 2.113,-0.812 1.629,-0.738 1.221,-0.723 c -0.037,-0.006 -0.13,0.306 -0.098,0.458 0.039,0.117 0.186,0.23 0.316,0.31 0.092,0.06 0.214,0.069 0.327,0.102 C 1.68,0.23 1.584,0.327 1.498,0.411 m -2.46,-2.758 c -0.017,-0.793 -0.325,-1.32 -0.897,-1.644 -0.206,-0.107 -0.538,-0.16 -0.733,-0.075 -0.17,0.082 -0.2,0.411 -0.318,0.619 -0.116,0.219 -0.23,0.559 -0.382,0.591 -0.675,0.097 -0.595,0.533 -0.503,0.967 0.157,0.666 1.18,1.126 1.789,0.808 0.023,-0.016 -0.039,-0.212 -0.076,-0.315 -0.057,-0.163 -0.147,-0.307 -0.216,-0.467 0.192,0.084 0.393,0.154 0.588,0.262 0.064,0.039 0.091,0.145 0.148,0.222 0.07,0.075 0.151,0.138 0.231,0.199 0.021,-0.111 0.044,-0.222 0.052,-0.343 0.003,-0.074 -0.051,-0.211 -0.017,-0.227 0.385,-0.194 0.385,-0.194 0.334,-0.597 m 0.824,3.629 C -0.155,1.14 -0.158,1.116 -0.16,1.104 -0.266,0.841 -0.386,0.567 -0.491,0.304 -0.583,0.532 -0.687,0.75 -0.778,0.979 -0.826,1.081 -0.83,1.238 -0.896,1.283 -1.02,1.358 -1.186,1.38 -1.336,1.423 -1.34,1.304 -1.356,1.173 -1.348,1.052 -1.345,0.979 -1.305,0.913 -1.278,0.838 -1.181,0.656 -1.096,0.477 -0.998,0.296 -1.161,0.341 -1.334,0.399 -1.513,0.422 -1.57,0.441 -1.637,0.39 -1.7,0.361 -1.641,0.27 -1.606,0.156 -1.532,0.075 c 0.137,-0.15 0.313,-0.281 0.464,-0.421 -0.201,-0.058 -0.421,-0.187 -0.61,-0.151 -0.725,0.165 -1.453,0.318 -1.83,1.138 -0.245,0.537 -0.09,0.999 0.16,1.449 0.051,0.114 0.305,0.214 0.436,0.197 0.482,-0.086 0.642,0.22 0.676,0.576 0.041,0.513 0.328,0.778 0.775,0.793 0.435,0.005 0.799,-0.259 0.922,-0.708 0.158,-0.551 0.268,-1.106 0.401,-1.666 M 3.165,-2.573 C 3.214,-2.664 3.211,-2.688 3.209,-2.699 3.3,-3.12 3.683,-3.519 3.29,-3.95 2.885,-4.393 2.369,-4.183 1.913,-4.076 1.621,-4.002 1.604,-4.036 1.545,-4.317 1.371,-5.115 1.099,-5.357 0.571,-5.241 c -0.175,0.034 -0.387,0.17 -0.5,0.328 -0.386,0.556 -0.61,1.163 -0.522,1.85 0.048,0.379 0.086,0.772 0.146,1.15 0.023,0.081 0.106,0.167 0.164,0.244 0.061,-0.092 0.148,-0.163 0.195,-0.266 0.046,-0.114 0.04,-0.257 0.073,-0.371 0.037,-0.089 0.099,-0.169 0.136,-0.257 0.083,0.084 0.165,0.159 0.224,0.248 0.048,0.09 0.074,0.195 0.111,0.298 C 0.67,-2.11 0.742,-2.203 0.815,-2.297 0.937,-2.47 1.047,-2.652 1.168,-2.836 1.409,-2.554 1.371,-2.283 1.13,-2 c -0.084,0.095 -0.115,0.231 -0.172,0.348 -0.06,0.103 -0.13,0.209 -0.187,0.325 0.16,0.027 0.339,0.113 0.478,0.071 0.777,-0.232 1.435,-0.653 1.916,-1.317 M -8.856,-2.845 c -0.195,0.555 -0.409,1.052 -0.61,1.548 -0.066,0.141 -0.148,0.26 -0.226,0.402 0.169,0.002 0.329,0.031 0.497,0.021 1.196,-0.068 2.4,-0.162 3.599,-0.207 0.409,-0.016 0.809,0.102 1.212,0.146 0.17,0.015 0.348,-0.007 0.528,-0.018 -0.078,-0.135 -0.143,-0.272 -0.23,-0.381 -0.558,-0.784 -0.442,-1.389 0.305,-1.954 0.166,-0.117 0.277,-0.373 0.323,-0.583 0.126,-0.523 0.519,-0.753 0.975,-0.859 0.41,-0.089 0.799,0.042 1.065,0.418 0.119,0.177 0.293,0.311 0.442,0.449 0.075,-0.178 0.146,-0.368 0.22,-0.546 0.093,-0.217 0.189,-0.41 0.258,-0.624 0.413,-1.101 1.844,-1.127 2.308,-0.138 0.15,0.33 0.385,0.385 0.762,0.408 0.958,0.047 1.488,0.328 1.398,1.412 -0.071,0.865 -0.574,1.448 -1.261,1.92 -0.089,0.06 -0.177,0.131 -0.264,0.202 0.104,0.06 0.22,0.118 0.336,0.174 0.752,0.326 1.276,0.838 1.337,1.698 C 4.156,1.132 3.818,1.597 3.35,1.607 3.012,1.603 2.882,1.716 2.849,2.021 2.838,2.131 2.816,2.242 2.77,2.345 2.365,3.239 1.482,3.4 0.876,2.707 0.693,2.501 0.489,2.322 0.309,2.129 0.223,2.405 0.149,2.68 0.078,2.966 -0.082,3.601 -0.507,4.052 -1.101,4.212 -1.567,4.332 -2.143,4.261 -2.436,3.757 -2.741,3.253 -3.071,2.838 -3.641,2.621 -3.78,2.566 -3.91,2.402 -3.977,2.255 -4.426,1.288 -4.289,0.656 -3.494,-0.192 c 0.063,-0.069 0.087,-0.168 0.124,-0.257 -0.086,-0.013 -0.163,-0.052 -0.248,-0.053 -0.289,0.001 -0.575,0.025 -0.865,0.015 -0.953,0.001 -1.907,-0.023 -2.859,-0.021 -0.505,0.004 -1.006,0.044 -1.509,0.072 -0.395,0.014 -0.81,-0.029 -1.198,0.044 -1.151,0.232 -2.283,0.521 -3.43,0.788 -0.269,0.059 -0.561,0.036 -0.83,0.106 -1.802,0.508 -3.621,0.98 -5.416,1.548 -1.401,0.443 -2.781,0.957 -4.16,1.482 -1.32,0.506 -2.656,0.99 -3.927,1.599 -1.271,0.62 -2.475,1.376 -3.714,2.052 -0.169,0.094 -0.415,0.053 -0.617,0.079 0.11,-0.183 0.186,-0.434 0.344,-0.514 1.487,-0.816 2.971,-1.644 4.492,-2.369 1.386,-0.658 2.817,-1.251 4.254,-1.784 1.288,-0.478 2.663,-0.75 3.936,-1.262 1.728,-0.702 3.566,-0.937 5.364,-1.384 0.982,-0.233 1.972,-0.408 2.956,-0.631 0.035,-0.004 0.084,-0.094 0.068,-0.129 -0.391,-1.082 -0.049,-2.078 0.45,-2.984 0.432,-0.767 0.812,-1.658 1.742,-2.017 0.115,-0.04 0.25,-0.021 0.381,-0.038 -0.055,0.14 -0.085,0.277 -0.154,0.406 -0.121,0.183 -0.342,0.333 -0.366,0.528 -0.095,0.663 -0.13,1.342 -0.18,2.071"
       style="fill:#4e6045;fill-opacity:1;fill-rule:nonzero;stroke:none;stroke-width:1.00062997;stroke-dasharray:none"
       transform="matrix(0.35277776,0,0,-0.35277776,136.2515,150.94033)"
       clip-path="url(#clipPath1986)" />
    <path
       id="path1987"
       d="M 0,0 C 0.281,-0.037 0.487,-0.069 0.628,-0.181 0.912,-0.415 0.957,-0.773 0.676,-0.971 0.457,-1.127 -0.009,-1.237 -0.189,-1.112 -0.43,-0.953 -0.501,-0.539 -0.235,-0.234 -0.158,-0.152 -0.078,-0.082 0,0 m -7.53,-6.368 c 0.193,-0.406 0.356,-0.697 0.518,-0.987 0.031,-0.067 0.037,-0.139 0.055,-0.208 -0.064,0.007 -0.167,-0.02 -0.211,0.005 -0.736,0.684 -1.513,1.332 -1.878,2.299 -0.062,0.144 -0.001,0.333 0.006,0.495 0.122,-0.09 0.274,-0.15 0.365,-0.261 0.388,-0.442 0.768,-0.899 1.145,-1.343 M 1.234,0.943 C 1.096,0.906 1.084,0.903 1.061,0.897 0.882,0.826 0.691,0.751 0.513,0.679 0.615,0.854 0.729,1.032 0.831,1.208 0.882,1.295 0.931,1.395 0.967,1.49 0.842,1.495 0.69,1.554 0.596,1.492 0.486,1.438 0.441,1.278 0.374,1.161 0.283,0.989 0.192,0.817 0.09,0.642 0.021,0.858 -0.162,1.082 -0.123,1.266 -0.011,1.777 0.154,2.277 0.362,2.753 0.413,2.89 0.753,3.053 0.855,2.993 1.147,2.823 1.562,2.611 1.638,2.322 1.832,1.632 2.05,1.603 2.513,2.095 2.573,2.148 2.942,2.06 2.993,1.962 3.328,1.297 2.859,0.777 2.509,0.327 2.263,0.04 1.786,-0.073 1.402,-0.211 1.37,-0.232 1.167,0.023 1.14,0.177 1.132,0.298 1.226,0.459 1.317,0.582 1.38,0.673 1.489,0.726 1.581,0.8 1.471,0.845 1.345,0.898 1.234,0.943 m -1.247,-3.479 c 0.282,-0.741 0.194,-1.346 -0.215,-1.86 -0.151,-0.176 -0.439,-0.351 -0.65,-0.345 -0.188,0.012 -0.34,0.305 -0.527,0.454 -0.191,0.16 -0.423,0.433 -0.576,0.405 -0.663,-0.162 -0.751,0.272 -0.83,0.708 -0.104,0.678 0.672,1.487 1.357,1.42 0.026,-0.006 0.043,-0.211 0.047,-0.321 0.009,-0.171 -0.022,-0.339 -0.026,-0.514 0.147,0.151 0.307,0.291 0.447,0.464 0.046,0.062 0.03,0.169 0.055,0.262 0.036,0.095 0.087,0.183 0.139,0.271 0.062,-0.095 0.124,-0.19 0.177,-0.3 0.03,-0.066 0.032,-0.213 0.069,-0.216 0.43,-0.036 0.43,-0.036 0.533,-0.428 M -0.608,1.138 C -0.572,0.999 -0.566,0.976 -0.563,0.965 -0.562,0.681 -0.57,0.382 -0.569,0.098 -0.74,0.275 -0.919,0.438 -1.089,0.616 -1.171,0.693 -1.234,0.837 -1.312,0.854 -1.455,0.878 -1.616,0.835 -1.772,0.819 -1.73,0.706 -1.697,0.579 -1.644,0.47 -1.614,0.403 -1.553,0.358 -1.5,0.298 -1.342,0.166 -1.195,0.032 -1.037,-0.1 c -0.168,-0.019 -0.351,-0.03 -0.524,-0.076 -0.06,-0.003 -0.103,-0.076 -0.152,-0.126 0.091,-0.062 0.164,-0.154 0.264,-0.203 0.183,-0.087 0.395,-0.142 0.588,-0.216 -0.163,-0.129 -0.321,-0.331 -0.509,-0.368 -0.734,-0.119 -1.466,-0.25 -2.123,0.368 -0.428,0.407 -0.457,0.893 -0.394,1.404 0.004,0.125 0.201,0.312 0.328,0.346 0.481,0.102 0.514,0.444 0.412,0.787 -0.155,0.492 0.012,0.844 0.421,1.026 0.402,0.168 0.837,0.059 1.121,-0.311 0.353,-0.451 0.663,-0.925 0.997,-1.393 M 3.898,-1.198 C 3.978,-1.264 3.983,-1.287 3.986,-1.299 4.229,-1.655 4.733,-1.881 4.531,-2.428 4.32,-2.99 3.764,-2.988 3.301,-3.061 3.003,-3.102 3.001,-3.14 3.051,-3.423 3.188,-4.228 3.026,-4.554 2.494,-4.645 2.318,-4.679 2.071,-4.632 1.907,-4.527 c -0.566,0.37 -1.001,0.848 -1.178,1.519 -0.097,0.369 -0.208,0.748 -0.294,1.121 -0.01,0.084 0.035,0.195 0.06,0.287 0.09,-0.062 0.198,-0.095 0.28,-0.172 0.085,-0.089 0.133,-0.225 0.206,-0.317 0.069,-0.069 0.156,-0.12 0.223,-0.188 0.045,0.11 0.094,0.21 0.115,0.314 0.011,0.102 -0.005,0.208 -0.009,0.318 0.102,-0.059 0.204,-0.119 0.306,-0.178 0.179,-0.114 0.348,-0.242 0.53,-0.367 0.117,0.351 -0.019,0.587 -0.349,0.76 -0.113,0.057 -0.193,0.172 -0.29,0.257 -0.094,0.074 -0.199,0.146 -0.296,0.232 0.139,0.086 0.272,0.232 0.418,0.246 0.808,0.076 1.574,-0.068 2.269,-0.503 M -7.145,-5.957 c -0.387,0.441 -0.772,0.822 -1.145,1.206 -0.114,0.105 -0.234,0.186 -0.359,0.288 0.155,0.066 0.293,0.151 0.452,0.205 1.135,0.386 2.286,0.75 3.415,1.158 0.384,0.139 0.711,0.398 1.067,0.59 0.153,0.078 0.326,0.123 0.497,0.181 -0.021,-0.154 -0.031,-0.305 -0.07,-0.439 -0.224,-0.936 0.11,-1.454 1.016,-1.698 0.197,-0.047 0.396,-0.241 0.517,-0.419 0.313,-0.437 0.763,-0.504 1.226,-0.431 0.414,0.071 0.726,0.338 0.831,0.787 0.044,0.209 0.154,0.398 0.242,0.583 0.135,-0.138 0.273,-0.287 0.408,-0.425 0.167,-0.166 0.328,-0.309 0.473,-0.481 0.796,-0.866 2.132,-0.353 2.19,0.738 0.017,0.362 0.215,0.501 0.555,0.664 0.87,0.402 1.256,0.862 0.766,1.833 -0.39,0.775 -1.076,1.126 -1.889,1.307 -0.105,0.022 -0.212,0.055 -0.32,0.089 0.074,0.093 0.16,0.19 0.246,0.287 C 3.548,0.649 3.842,1.32 3.576,2.14 3.429,2.607 2.94,2.912 2.502,2.747 2.19,2.616 2.027,2.672 1.882,2.942 1.832,3.04 1.77,3.135 1.687,3.213 0.978,3.891 0.099,3.709 -0.203,2.839 -0.296,2.579 -0.418,2.337 -0.514,2.09 -0.695,2.313 -0.866,2.54 -1.041,2.779 -1.427,3.308 -1.989,3.567 -2.601,3.493 -3.077,3.429 -3.584,3.147 -3.667,2.569 -3.762,1.988 -3.911,1.479 -4.358,1.065 -4.468,0.963 -4.526,0.762 -4.532,0.6 c -0.054,-1.065 0.309,-1.6 1.364,-2.088 0.085,-0.039 0.144,-0.123 0.211,-0.192 -0.074,-0.044 -0.132,-0.108 -0.209,-0.141 -0.269,-0.108 -0.543,-0.193 -0.809,-0.312 -0.881,-0.355 -1.758,-0.734 -2.641,-1.091 -0.47,-0.185 -0.949,-0.336 -1.426,-0.498 -0.372,-0.135 -0.74,-0.331 -1.128,-0.408 -1.154,-0.218 -2.311,-0.374 -3.475,-0.557 -0.271,-0.046 -0.534,-0.177 -0.808,-0.212 -1.861,-0.205 -3.726,-0.449 -5.602,-0.597 -1.466,-0.113 -2.937,-0.154 -4.412,-0.185 -1.414,-0.026 -2.834,-0.078 -4.241,0.009 -1.41,0.099 -2.81,0.348 -4.212,0.51 -0.191,0.024 -0.404,-0.107 -0.601,-0.157 0.169,-0.129 0.334,-0.333 0.511,-0.348 1.684,-0.199 3.371,-0.411 5.053,-0.512 1.532,-0.091 3.08,-0.104 4.613,-0.058 1.373,0.04 2.749,0.302 4.12,0.305 1.868,-0.003 3.659,0.468 5.494,0.729 0.998,0.151 1.98,0.36 2.975,0.523 0.035,0.009 0.114,-0.056 0.111,-0.093 0.044,-1.151 0.735,-1.946 1.538,-2.599 0.687,-0.548 1.374,-1.232 2.371,-1.218 0.122,0.008 0.24,0.076 0.367,0.11 -0.104,0.108 -0.183,0.223 -0.294,0.318 -0.182,0.125 -0.443,0.18 -0.538,0.352 -0.337,0.579 -0.623,1.196 -0.945,1.853"
       style="fill:#4e6045;fill-opacity:1;fill-rule:nonzero;stroke:none;stroke-width:1.00062997;stroke-dasharray:none"
       transform="matrix(0.35277776,0,0,-0.35277776,126.10843,143.81623)"
       clip-path="url(#clipPath1988)" />
    <path
       id="path1989"
       d="m 0,0 c -0.007,-0.01 -0.02,-0.029 -0.116,-0.066 -0.799,-0.184 -1.571,-0.07 -2.31,0.266 -0.133,0.06 -0.212,0.242 -0.314,0.368 0.119,0.05 0.242,0.082 0.355,0.122 0.119,0.05 0.232,0.132 0.358,0.149 0.368,0.056 0.574,0.234 0.578,0.605 C -1.661,1.385 -1.863,1.319 -2.069,1.27 -2.186,1.247 -2.302,1.224 -2.417,1.201 c 0.039,0.103 0.09,0.198 0.112,0.298 0.014,0.105 0.001,0.215 -0.006,0.335 C -2.396,1.791 -2.496,1.771 -2.582,1.729 -2.682,1.665 -2.771,1.553 -2.881,1.497 -2.983,1.45 -3.097,1.454 -3.202,1.424 c 0.007,0.097 0,0.216 0.036,0.292 0.203,0.324 0.433,0.645 0.645,0.964 0.385,0.575 0.953,0.885 1.61,1.05 0.188,0.046 0.437,0.009 0.593,-0.081 0.473,-0.258 0.519,-0.62 0.127,-1.336 -0.14,-0.25 -0.15,-0.288 0.118,-0.423 0.414,-0.22 0.94,-0.4 0.956,-1 C 0.896,0.307 0.345,0.258 0,0 m -2.004,-2.758 c -0.079,-0.075 -0.457,-0.038 -0.497,0.031 -0.277,0.618 -0.492,0.661 -0.901,0.072 -0.166,-0.248 -0.627,-0.315 -0.958,-0.38 -0.117,-0.023 -0.384,0.243 -0.388,0.389 -0.042,0.517 -0.034,1.043 0.026,1.564 0.024,0.186 0.27,0.338 0.406,0.52 0.039,-0.2 0.069,-0.392 0.098,-0.584 0.027,-0.132 0.016,-0.298 0.102,-0.384 0.069,-0.09 0.232,-0.084 0.351,-0.12 -0.003,0.102 -0.016,0.212 -0.036,0.311 -0.039,0.199 -0.089,0.404 -0.128,0.604 0.146,-0.126 0.301,-0.259 0.447,-0.386 0.02,-0.013 0.03,-0.02 0.149,-0.1 0.119,0.007 0.255,0.017 0.374,0.023 -0.062,0.099 -0.148,0.186 -0.178,0.292 -0.047,0.146 -0.083,0.328 -0.036,0.441 0.076,0.136 0.352,0.311 0.375,0.281 0.319,-0.255 0.732,-0.518 0.87,-0.87 0.185,-0.541 0.459,-1.184 -0.076,-1.704 m -3.035,2.104 c -0.007,-0.01 -0.02,-0.03 -0.1,-0.149 -0.467,-0.334 -0.916,-0.681 -1.397,-0.992 -0.388,-0.258 -0.835,-0.217 -1.16,0.071 -0.327,0.306 -0.369,0.694 -0.064,1.108 0.209,0.291 0.289,0.626 -0.132,0.879 C -8,0.336 -8.126,0.578 -8.089,0.697 -7.982,1.2 -7.796,1.651 -7.259,1.896 -6.436,2.265 -5.787,1.902 -5.132,1.55 -4.966,1.454 -4.884,1.212 -4.771,1.036 -4.977,1.029 -5.195,1.047 -5.397,1.023 -5.507,1.011 -5.606,0.948 -5.713,0.918 -5.683,0.855 -5.666,0.772 -5.61,0.749 -5.461,0.649 -5.292,0.579 -5.14,0.506 -5.332,0.434 -5.515,0.354 -5.707,0.282 -5.776,0.242 -5.85,0.219 -5.899,0.166 -5.985,0.08 -6.059,-0.029 -6.135,-0.122 c 0.142,-0.066 0.281,-0.159 0.424,-0.183 0.079,-0.009 0.186,0.106 0.288,0.152 0.219,0.112 0.442,0.208 0.66,0.32 -0.092,-0.268 -0.183,-0.553 -0.276,-0.821 m 1.802,1.425 C -3.035,0.492 -3.194,0.168 -3.54,0.039 -3.709,-0.02 -3.914,0.017 -4.192,0.073 c -0.047,0.104 -0.1,0.197 -0.146,0.299 -0.152,0.375 0.051,0.742 0.329,0.815 0.213,0.059 0.616,-0.197 0.772,-0.416 m -2.576,3.22 c 0.216,0.387 0.442,0.768 1.015,0.399 0.136,-0.077 0.444,0.105 0.676,0.194 0.226,0.08 0.465,0.308 0.647,0.258 C -3.272,4.778 -3.058,4.52 -2.972,4.304 -2.755,3.684 -2.868,3.084 -3.376,2.476 -3.603,2.138 -3.603,2.138 -4.02,2.244 -4.057,2.254 -4.106,2.115 -4.156,2.063 -4.242,1.977 -4.332,1.907 -4.422,1.837 c -0.019,0.1 -0.039,0.199 -0.042,0.302 0.007,0.096 0.057,0.192 0.033,0.265 -0.076,0.209 -0.181,0.395 -0.27,0.584 C -4.755,2.822 -4.781,2.653 -4.845,2.494 -4.885,2.392 -4.968,2.203 -4.994,2.206 -5.663,2.366 -6.133,3.385 -5.813,3.991 M 0.875,1.974 c -0.268,0.265 -0.41,0.462 -0.307,0.809 0.3,1.05 -0.795,1.97 -1.83,1.412 C -1.454,4.079 -1.653,3.997 -1.866,3.895 -2.038,3.809 -2.218,3.713 -2.39,3.627 -2.413,3.829 -2.455,4.045 -2.429,4.257 -2.382,4.714 -2.59,5.069 -2.957,5.271 -3.371,5.491 -3.818,5.575 -4.257,5.265 -4.429,5.135 -4.682,5.017 -4.884,5.036 -5.817,5.102 -6.303,4.721 -6.396,3.764 -6.403,3.624 -6.443,3.479 -6.474,3.326 c -0.142,0.11 -0.292,0.209 -0.411,0.332 -0.274,0.299 -0.499,0.651 -0.816,0.906 -1.234,0.997 -2.483,1.948 -3.818,2.802 -1.32,0.846 -2.674,1.64 -4.057,2.379 -1.272,0.681 -2.569,1.316 -3.887,1.902 -0.93,0.414 -1.931,0.813 -2.936,0.655 2.969,-1.17 5.86,-2.542 8.644,-4.102 1.551,-0.868 3.008,-1.762 4.361,-2.92 C -8.676,4.655 -7.971,4.011 -7.253,3.387 -7.041,3.188 -6.81,3.019 -6.591,2.829 -6.528,2.772 -6.495,2.692 -6.438,2.626 -6.525,2.583 -6.607,2.524 -6.701,2.515 -7.857,2.396 -8.375,2.01 -8.672,0.986 -8.719,0.831 -8.729,0.622 -8.66,0.489 c 0.288,-0.537 0.264,-1.067 0.163,-1.647 -0.11,-0.573 0.276,-1.005 0.707,-1.221 0.554,-0.269 1.17,-0.208 1.707,0.166 0.243,0.168 0.479,0.327 0.724,0.479 0.009,-0.265 0.046,-0.534 0.048,-0.809 0.001,-0.921 0.773,-1.38 1.665,-0.971 0.103,0.046 0.193,0.117 0.273,0.193 0.226,0.208 0.397,0.208 0.649,-0.019 0.361,-0.299 0.921,-0.17 1.214,0.224 0.518,0.688 0.459,1.418 0.107,2.157 -0.05,0.12 -0.1,0.239 -0.139,0.352 0.112,-0.003 0.225,-0.007 0.331,-0.021 0.828,-0.094 1.591,0.015 2.212,0.62 0.78,0.757 0.565,1.318 -0.126,1.982"
       style="fill:#4e6045;fill-opacity:1;fill-rule:nonzero;stroke:none;stroke-width:1.00062997;stroke-dasharray:none"
       transform="matrix(0.35277776,0,0,-0.35277776,125.33087,150.62614)"
       clip-path="url(#clipPath1990)" />
    <path
       id="path1991"
       d="M 0,0 C 0.269,0.106 0.468,0.181 0.648,0.151 1.018,0.085 1.235,-0.212 1.084,-0.527 0.968,-0.775 0.608,-1.104 0.386,-1.083 0.093,-1.061 -0.177,-0.729 -0.092,-0.326 -0.064,-0.215 -0.027,-0.111 0,0 m -3.523,-9.406 c 0.374,-0.266 0.663,-0.443 0.953,-0.62 0.059,-0.044 0.101,-0.105 0.152,-0.158 -0.061,-0.024 -0.14,-0.1 -0.191,-0.099 -0.995,0.241 -2.007,0.43 -2.813,1.108 -0.127,0.097 -0.167,0.296 -0.242,0.444 0.155,-0.021 0.319,0.002 0.456,-0.052 0.564,-0.199 1.129,-0.416 1.685,-0.623 M 0.628,1.452 C 0.523,1.351 0.515,1.342 0.497,1.325 0.374,1.172 0.242,1.011 0.118,0.858 0.122,1.064 0.135,1.279 0.139,1.486 0.14,1.59 0.134,1.701 0.118,1.806 0.005,1.747 -0.159,1.724 -0.212,1.622 -0.283,1.52 -0.243,1.355 -0.245,1.218 -0.24,1.02 -0.235,0.821 -0.238,0.615 c -0.17,0.157 -0.444,0.266 -0.5,0.447 -0.156,0.511 -0.258,1.039 -0.309,1.564 -0.023,0.147 0.198,0.462 0.318,0.46 0.344,-0.007 0.818,0.011 1.03,-0.208 0.515,-0.517 0.723,-0.435 0.89,0.233 0.028,0.077 0.4,0.183 0.494,0.121 C 2.313,2.808 2.155,2.113 2.067,1.538 1.992,1.161 1.624,0.823 1.352,0.51 1.334,0.476 1.026,0.602 0.926,0.724 0.858,0.828 0.861,1.018 0.882,1.172 0.893,1.283 0.963,1.386 1.008,1.497 0.887,1.481 0.749,1.467 0.628,1.452 M 1.251,-2.261 C 1.87,-2.779 2.093,-3.36 1.986,-4.021 1.938,-4.253 1.771,-4.551 1.579,-4.65 1.405,-4.733 1.125,-4.548 0.884,-4.51 c -0.248,0.048 -0.591,0.175 -0.713,0.073 -0.508,-0.472 -0.803,-0.131 -1.089,0.218 -0.43,0.55 -0.144,1.655 0.499,1.937 0.025,0.008 0.144,-0.167 0.202,-0.263 0.092,-0.147 0.15,-0.312 0.233,-0.469 0.055,0.206 0.128,0.411 0.166,0.635 0.009,0.077 -0.058,0.164 -0.081,0.259 -0.016,0.103 -0.014,0.207 -0.012,0.31 0.101,-0.053 0.204,-0.107 0.307,-0.177 0.059,-0.044 0.134,-0.175 0.168,-0.159 0.4,0.183 0.4,0.183 0.687,-0.115 m -2.357,2.969 c 0.101,-0.105 0.118,-0.123 0.127,-0.132 0.141,-0.252 0.283,-0.521 0.424,-0.773 -0.239,0.073 -0.479,0.129 -0.718,0.202 -0.113,0.028 -0.24,0.125 -0.318,0.1 -0.138,-0.049 -0.261,-0.167 -0.391,-0.259 0.092,-0.079 0.186,-0.176 0.288,-0.246 0.059,-0.045 0.136,-0.055 0.214,-0.082 0.206,-0.039 0.403,-0.084 0.609,-0.122 -0.14,-0.101 -0.297,-0.202 -0.428,-0.329 -0.053,-0.034 -0.054,-0.12 -0.072,-0.188 0.111,-0.011 0.223,-0.056 0.335,-0.049 0.207,0.014 0.423,0.07 0.63,0.101 -0.081,-0.197 -0.12,-0.454 -0.269,-0.58 -0.594,-0.472 -1.179,-0.953 -2.07,-0.73 -0.583,0.148 -0.851,0.566 -1.049,1.051 -0.058,0.113 0.024,0.379 0.12,0.472 0.376,0.329 0.236,0.65 -0.026,0.904 -0.381,0.359 -0.408,0.756 -0.136,1.121 0.273,0.349 0.715,0.47 1.15,0.281 0.539,-0.224 1.05,-0.492 1.58,-0.742 M 4.062,0.875 C 4.164,0.855 4.181,0.838 4.189,0.829 4.582,0.633 5.143,0.684 5.235,0.097 5.328,-0.508 4.832,-0.783 4.457,-1.078 4.213,-1.263 4.229,-1.298 4.415,-1.524 4.937,-2.171 4.956,-2.541 4.528,-2.887 4.389,-3.005 4.146,-3.087 3.948,-3.074 3.261,-3.028 2.636,-2.818 2.146,-2.311 1.875,-2.03 1.587,-1.75 1.325,-1.461 1.275,-1.392 1.26,-1.271 1.236,-1.176 1.348,-1.187 1.46,-1.162 1.571,-1.19 1.691,-1.227 1.802,-1.323 1.912,-1.368 2.007,-1.396 2.11,-1.397 2.204,-1.426 2.189,-1.305 2.183,-1.192 2.15,-1.089 2.108,-0.993 2.041,-0.906 1.982,-0.811 2.104,-0.812 2.224,-0.814 2.344,-0.816 2.56,-0.829 2.773,-0.858 2.997,-0.88 2.927,-0.509 2.688,-0.366 2.309,-0.377 2.18,-0.384 2.052,-0.32 1.923,-0.293 c -0.12,0.02 -0.249,0.03 -0.378,0.059 0.08,0.144 0.127,0.341 0.249,0.425 0.68,0.471 1.433,0.724 2.268,0.684 M -3.385,-8.85 c -0.564,0.2 -1.095,0.347 -1.618,0.502 -0.154,0.037 -0.3,0.049 -0.463,0.077 0.106,0.136 0.186,0.282 0.3,0.409 0.816,0.906 1.658,1.803 2.458,2.727 0.272,0.315 0.435,0.707 0.656,1.057 0.097,0.144 0.229,0.27 0.352,0.406 0.057,-0.147 0.124,-0.286 0.155,-0.425 0.268,-0.942 0.822,-1.236 1.747,-1.003 0.199,0.057 0.474,-0.017 0.67,-0.115 0.495,-0.232 0.928,-0.068 1.304,0.227 0.332,0.269 0.476,0.663 0.346,1.112 -0.065,0.208 -0.061,0.432 -0.075,0.639 0.189,-0.055 0.386,-0.119 0.574,-0.174 0.232,-0.065 0.446,-0.111 0.66,-0.193 1.138,-0.373 2.07,0.748 1.58,1.746 -0.166,0.33 -0.059,0.551 0.162,0.867 0.573,0.79 0.687,1.39 -0.232,2.009 C 4.46,1.513 3.676,1.484 2.862,1.24 2.759,1.207 2.646,1.184 2.534,1.16 2.554,1.28 2.581,1.408 2.609,1.537 2.83,2.343 2.758,3.084 2.114,3.681 1.75,4.022 1.165,4.051 0.857,3.686 0.646,3.414 0.474,3.383 0.209,3.551 0.116,3.613 0.014,3.666 -0.098,3.694 -1.066,3.943 -1.757,3.345 -1.593,2.421 -1.546,2.145 -1.533,1.869 -1.495,1.602 -1.769,1.71 -2.033,1.826 -2.307,1.951 -2.913,2.229 -3.542,2.18 -4.048,1.811 -4.44,1.516 -4.751,1.014 -4.537,0.459 c 0.205,-0.563 0.325,-1.091 0.134,-1.681 -0.045,-0.146 0.003,-0.353 0.077,-0.501 0.482,-0.972 1.071,-1.267 2.252,-1.176 0.095,0.007 0.188,-0.038 0.283,-0.065 -0.045,-0.077 -0.063,-0.163 -0.116,-0.23 -0.185,-0.23 -0.387,-0.442 -0.563,-0.679 -0.607,-0.756 -1.198,-1.528 -1.805,-2.284 -0.326,-0.399 -0.677,-0.771 -1.019,-1.153 -0.264,-0.304 -0.494,-0.662 -0.8,-0.923 -0.918,-0.768 -1.868,-1.483 -2.811,-2.223 -0.218,-0.177 -0.386,-0.424 -0.613,-0.592 -1.552,-1.108 -3.087,-2.252 -4.681,-3.317 -1.246,-0.83 -2.533,-1.599 -3.829,-2.36 -1.244,-0.726 -2.48,-1.479 -3.774,-2.102 -1.302,-0.613 -2.67,-1.089 -3.997,-1.642 -0.181,-0.074 -0.306,-0.296 -0.455,-0.439 0.214,-0.03 0.462,-0.129 0.627,-0.055 1.596,0.66 3.199,1.313 4.745,2.06 1.406,0.68 2.789,1.439 4.129,2.242 1.2,0.719 2.292,1.638 3.51,2.322 1.66,0.926 3.017,2.236 4.518,3.38 0.812,0.632 1.581,1.307 2.385,1.946 0.027,0.026 0.129,0.007 0.146,-0.028 0.61,-1.001 1.62,-1.362 2.658,-1.545 0.884,-0.144 1.835,-0.411 2.714,0.099 0.104,0.067 0.175,0.186 0.271,0.279 -0.145,0.046 -0.273,0.108 -0.42,0.137 -0.222,0.02 -0.482,-0.061 -0.653,0.046 -0.588,0.345 -1.148,0.752 -1.761,1.175"
       style="fill:#4e6045;fill-opacity:1;fill-rule:nonzero;stroke:none;stroke-width:1.00062997;stroke-dasharray:none"
       transform="matrix(0.35277776,0,0,-0.35277776,140.93751,141.86424)"
       clip-path="url(#clipPath1992)" />
    <path
       id="path1993"
       d="M 0,0 C 0.088,0.288 0.13,0.479 0.17,0.638 0.198,0.799 0.21,0.932 0.236,1.105 0.221,1.276 0.175,1.386 0.068,1.338 -0.137,1.25 -0.22,0.757 -0.338,0.479 -0.417,0.213 -0.527,-0.043 -0.633,-0.3 -0.776,-0.632 -0.8,-0.793 -1.116,-1.296 -1.571,-1.951 -1.563,-1.962 -2.112,-2.548 -2.687,-3.111 -2.742,-3.051 -3.375,-3.541 -4.025,-4.01 -4.004,-4.046 -4.698,-4.46 -5.405,-4.854 -5.437,-4.795 -6.166,-5.139 -6.904,-5.463 -6.883,-5.52 -7.644,-5.803 -8.412,-6.068 -8.427,-6.022 -9.205,-6.255 -9.988,-6.477 -9.99,-6.469 -10.78,-6.671 c -0.688,-0.169 -0.78,-0.191 -1.309,-0.322 -0.173,-0.059 -0.339,-0.127 -0.466,-0.208 -0.268,-0.171 0.017,-0.242 0.275,-0.236 0.674,0.019 1.403,0.265 2.08,0.421 0.067,0.016 0.631,0.141 1.137,0.289 0.791,0.237 0.789,0.244 1.571,0.514 0.776,0.289 0.78,0.28 1.54,0.614 0.752,0.355 0.757,0.344 1.484,0.748 0.715,0.427 0.685,0.476 1.359,0.962 0.657,0.51 0.674,0.493 1.272,1.079 0.571,0.614 0.567,0.622 1.046,1.313 0.112,0.178 0.196,0.311 0.267,0.424 0.065,0.114 0.118,0.207 0.17,0.299 C -0.238,-0.595 -0.151,-0.399 0,0"
       style="fill:#4e6045;fill-opacity:1;fill-rule:nonzero;stroke:none;stroke-width:1.00062997;stroke-dasharray:none"
       transform="matrix(0.35277776,0,0,-0.35277776,114.45541,143.39039)"
       clip-path="url(#clipPath1994)" />
    <path
       id="path1995"
       d="M 0,0 C 0.142,0.377 0.13,0.509 0.141,0.743 0.099,0.858 0.034,0.921 -0.062,0.88 -0.236,0.802 -0.282,0.521 -0.357,0.36 -0.419,0.212 -0.485,0.064 -0.572,-0.073 -0.669,-0.262 -0.69,-0.361 -0.93,-0.624 c -0.167,-0.173 -0.259,-0.25 -0.352,-0.326 -0.095,-0.075 -0.191,-0.153 -0.4,-0.28 -0.426,-0.249 -0.464,-0.172 -0.915,-0.387 -0.457,-0.211 -0.441,-0.247 -0.905,-0.469 -0.46,-0.237 -0.496,-0.174 -0.941,-0.469 -0.22,-0.155 -0.312,-0.26 -0.401,-0.363 -0.089,-0.103 -0.176,-0.208 -0.344,-0.42 -0.166,-0.217 -0.238,-0.333 -0.313,-0.444 -0.073,-0.113 -0.145,-0.229 -0.246,-0.466 -0.202,-0.466 -0.191,-0.475 -0.418,-0.887 -0.216,-0.336 -0.254,-0.376 -0.47,-0.564 -0.064,-0.072 -0.129,-0.141 -0.178,-0.219 -0.118,-0.16 0.066,-0.243 0.25,-0.198 0.231,0.054 0.434,0.22 0.586,0.409 0.153,0.191 0.263,0.407 0.371,0.604 0.024,0.04 0.192,0.37 0.313,0.663 0.099,0.229 0.149,0.336 0.203,0.442 0.057,0.105 0.108,0.211 0.248,0.394 0.146,0.181 0.233,0.262 0.32,0.34 0.088,0.078 0.176,0.158 0.373,0.295 0.402,0.267 0.412,0.252 0.849,0.477 0.448,0.215 0.428,0.265 0.89,0.478 0.463,0.222 0.476,0.198 0.93,0.461 0.224,0.139 0.33,0.222 0.434,0.304 0.105,0.085 0.209,0.17 0.397,0.364 0.183,0.198 0.271,0.302 0.363,0.406 C -0.201,-0.37 -0.108,-0.263 0,0"
       style="fill:#4e6045;fill-opacity:1;fill-rule:nonzero;stroke:none;stroke-width:1.00062997;stroke-dasharray:none"
       transform="matrix(0.35277776,0,0,-0.35277776,114.50261,143.22469)"
       clip-path="url(#clipPath1996)" />
    <path
       id="path1997"
       d="m 0,0 c -0.097,-0.396 -0.105,-0.517 -0.143,-0.753 0.022,-0.118 0.072,-0.199 0.175,-0.176 0.191,0.043 0.284,0.381 0.354,0.58 C 0.443,-0.16 0.501,0.024 0.559,0.21 0.616,0.459 0.616,0.57 0.751,0.962 0.94,1.485 0.934,1.489 1.156,2 1.393,2.505 1.464,2.47 1.729,2.955 1.857,3.188 1.921,3.306 1.986,3.424 2.017,3.474 2.051,3.521 2.098,3.568 2.143,3.614 2.211,3.653 2.25,3.648 2.338,3.639 2.342,3.525 2.332,3.42 2.325,3.364 2.315,3.311 2.298,3.233 2.278,3.149 2.261,3.05 2.237,2.915 2.128,2.384 2.189,2.366 2.02,1.844 1.825,1.329 1.782,1.347 1.535,0.861 1.268,0.386 1.262,0.388 0.943,-0.055 0.652,-0.426 0.612,-0.477 0.362,-0.74 0.293,-0.841 0.225,-0.94 0.189,-1.043 0.112,-1.262 0.33,-1.24 0.496,-1.154 c 0.434,0.226 0.738,0.695 1.026,1.088 0.029,0.04 0.278,0.365 0.45,0.697 0.263,0.52 0.256,0.525 0.462,1.071 0.178,0.555 0.186,0.554 0.303,1.126 0.024,0.145 0.041,0.253 0.056,0.343 0.015,0.097 0.02,0.183 0.019,0.27 C 2.808,3.531 2.803,3.625 2.75,3.756 2.702,3.88 2.556,4.076 2.284,4.1 2.007,4.104 1.888,3.979 1.804,3.909 1.721,3.83 1.673,3.76 1.629,3.689 1.539,3.539 1.492,3.419 1.347,3.167 1.071,2.664 1.052,2.674 0.809,2.153 0.58,1.626 0.584,1.624 0.389,1.084 0.206,0.54 0.148,0.558 0,0"
       style="fill:#4e6045;fill-opacity:1;fill-rule:nonzero;stroke:none;stroke-width:1.00062997;stroke-dasharray:none"
       transform="matrix(0.35277776,0,0,-0.35277776,133.56224,148.02303)"
       clip-path="url(#clipPath1998)" />
    <path
       id="path1999"
       d="m 0,0 c -0.206,0.257 -0.284,0.318 -0.423,0.451 -0.095,0.036 -0.179,0.03 -0.224,-0.061 -0.084,-0.17 0.083,-0.385 0.168,-0.525 0.083,-0.127 0.173,-0.248 0.253,-0.376 0.125,-0.153 0.197,-0.205 0.357,-0.484 0.203,-0.382 0.212,-0.379 0.373,-0.78 0.144,-0.41 0.066,-0.434 0.163,-0.848 0.045,-0.21 0.06,-0.294 0.069,-0.381 C 0.741,-3.085 0.745,-3.18 0.656,-3.289 0.564,-3.38 0.498,-3.348 0.437,-3.327 c -0.063,0.034 -0.112,0.056 -0.221,0.172 -0.108,0.124 -0.169,0.217 -0.232,0.301 -0.062,0.086 -0.127,0.174 -0.206,0.373 -0.146,0.4 -0.1,0.416 -0.189,0.827 -0.068,0.417 -0.061,0.419 -0.072,0.84 0.006,0.365 0.014,0.414 0.051,0.693 -0.004,0.095 -0.013,0.19 -0.045,0.274 -0.068,0.18 -0.227,0.078 -0.309,-0.052 -0.206,-0.342 -0.173,-0.796 -0.167,-1.186 -0.002,-0.039 -0.001,-0.368 0.057,-0.663 0.1,-0.458 0.109,-0.458 0.269,-0.898 0.088,-0.218 0.141,-0.323 0.193,-0.428 0.056,-0.104 0.097,-0.216 0.277,-0.426 0.194,-0.206 0.365,-0.269 0.515,-0.301 0.08,-0.013 0.165,-0.021 0.275,0.001 0.108,0.021 0.246,0.081 0.36,0.208 0.21,0.26 0.189,0.437 0.188,0.57 -0.01,0.136 -0.037,0.266 -0.085,0.49 C 0.991,-2.083 1.012,-2.076 0.858,-1.64 0.687,-1.211 0.68,-1.213 0.463,-0.806 0.229,-0.408 0.278,-0.375 0,0"
       style="fill:#4e6045;fill-opacity:1;fill-rule:nonzero;stroke:none;stroke-width:1.00062997;stroke-dasharray:none"
       transform="matrix(0.35277776,0,0,-0.35277776,128.38635,150.05736)"
       clip-path="url(#clipPath2000)" />
    <path
       id="path2001"
       d="m 0,0 c 0.092,-0.241 0.117,-0.405 0.158,-0.539 0.037,-0.135 0.068,-0.244 0.108,-0.389 0.075,-0.13 0.159,-0.208 0.242,-0.138 0.155,0.129 0.072,0.601 0.025,0.885 C 0.484,0.08 0.388,0.331 0.312,0.587 0.195,0.917 0.091,1.03 -0.133,1.547 -0.287,1.894 -0.403,2.047 -0.49,2.215 -0.586,2.378 -0.671,2.548 -0.889,2.857 -1.304,3.49 -1.262,3.521 -1.732,4.12 -1.987,4.402 -2.129,4.531 -2.266,4.662 -2.399,4.797 -2.548,4.917 -2.827,5.172 -2.967,5.3 -3.068,5.4 -3.152,5.483 -3.239,5.563 -3.31,5.628 -3.38,5.692 -3.521,5.82 -3.652,5.962 -3.961,6.184 -4.591,6.612 -4.62,6.566 -5.278,6.939 -5.603,7.137 -5.778,7.208 -5.94,7.309 -6.107,7.399 -6.267,7.508 -6.624,7.642 -7.328,7.93 -7.334,7.915 -8.06,8.146 -8.382,8.219 -8.564,8.261 -8.729,8.298 -8.811,8.316 -8.888,8.333 -8.976,8.353 -9.065,8.365 -9.165,8.379 -9.291,8.397 -9.461,8.403 -9.629,8.398 -9.764,8.367 -10.05,8.303 -9.822,8.134 -9.607,8.051 -9.322,7.942 -9.012,7.887 -8.7,7.803 -8.544,7.769 -8.386,7.733 -8.229,7.699 -8.075,7.657 -7.925,7.607 -7.778,7.558 -7.749,7.548 -7.613,7.501 -7.431,7.437 -7.248,7.371 -7.025,7.268 -6.808,7.185 -6.465,7.057 -6.306,6.963 -6.139,6.889 -5.978,6.804 -5.8,6.747 -5.487,6.556 -4.851,6.194 -4.859,6.181 -4.254,5.769 -3.957,5.556 -3.823,5.43 -3.679,5.317 -3.608,5.259 -3.537,5.201 -3.448,5.13 -3.365,5.052 -3.265,4.959 -3.13,4.835 c 0.273,-0.242 0.409,-0.363 0.547,-0.486 0.135,-0.124 0.275,-0.245 0.52,-0.517 0.454,-0.577 0.459,-0.574 0.86,-1.186 0.211,-0.3 0.292,-0.465 0.384,-0.624 0.083,-0.162 0.195,-0.31 0.342,-0.645 0.15,-0.334 0.21,-0.507 0.271,-0.679 C -0.16,0.521 -0.117,0.344 0,0"
       style="fill:#4e6045;fill-opacity:1;fill-rule:nonzero;stroke:none;stroke-width:1.00062997;stroke-dasharray:none"
       transform="matrix(0.35277776,0,0,-0.35277776,116.41533,148.52084)"
       clip-path="url(#clipPath2002)" />
    <path
       id="path2003"
       d="m 0,0 c 0.11,-0.228 0.141,-0.298 0.189,-0.442 0.06,-0.059 0.134,-0.093 0.222,-0.045 0.165,0.089 0.127,0.363 0.075,0.521 C 0.443,0.181 0.376,0.322 0.296,0.455 0.169,0.613 0.102,0.668 -0.12,0.896 -0.43,1.186 -0.441,1.174 -0.778,1.415 -1.12,1.646 -1.079,1.704 -1.411,1.926 -1.735,2.151 -1.766,2.11 -2.067,2.356 -2.353,2.615 -2.313,2.66 -2.534,2.947 -2.64,3.091 -2.693,3.164 -2.749,3.24 c -0.053,0.074 -0.106,0.152 -0.158,0.329 -0.085,0.368 -0.03,0.375 -0.068,0.765 -0.034,0.4 -0.015,0.401 -0.07,0.822 -0.063,0.369 -0.083,0.423 -0.194,0.705 -0.059,0.086 -0.13,0.162 -0.215,0.2 C -3.625,6.14 -3.661,5.94 -3.651,5.825 -3.644,5.66 -3.606,5.514 -3.568,5.355 -3.533,5.196 -3.497,5.029 -3.489,4.864 -3.487,4.831 -3.485,4.556 -3.466,4.292 -3.424,3.879 -3.428,3.877 -3.328,3.45 c 0.062,-0.213 0.109,-0.317 0.156,-0.419 0.05,-0.099 0.098,-0.203 0.228,-0.383 0.268,-0.346 0.268,-0.35 0.585,-0.637 0.329,-0.27 0.368,-0.215 0.706,-0.449 0.338,-0.227 0.337,-0.241 0.662,-0.46 0.317,-0.228 0.326,-0.22 0.603,-0.48 C -0.132,0.346 -0.179,0.309 0,0"
       style="fill:#4e6045;fill-opacity:1;fill-rule:nonzero;stroke:none;stroke-width:1.00062997;stroke-dasharray:none"
       transform="matrix(0.35277776,0,0,-0.35277776,116.45012,148.72788)"
       clip-path="url(#clipPath2004)" />
    <path
       id="path2005"
       d="m 0,0 c -0.098,-0.273 -0.118,-0.357 -0.187,-0.514 0.002,-0.091 0.036,-0.171 0.134,-0.189 0.18,-0.033 0.348,0.214 0.417,0.374 0.08,0.143 0.124,0.302 0.173,0.458 0.025,0.104 0.02,0.183 0.03,0.273 0.01,0.092 0.021,0.199 0.034,0.369 C 0.632,1.23 0.617,1.231 0.583,1.688 0.55,1.915 0.556,2.032 0.546,2.148 0.538,2.266 0.537,2.386 0.463,2.607 0.309,3.048 0.263,3.029 0.049,3.438 -0.071,3.637 -0.117,3.744 -0.177,3.846 -0.232,3.95 -0.287,4.058 -0.448,4.231 -0.78,4.568 -0.824,4.523 -1.193,4.797 -1.577,5.048 -1.555,5.091 -1.964,5.298 -2.378,5.49 -2.377,5.493 -2.799,5.654 -3.166,5.787 -3.218,5.796 -3.5,5.889 -3.6,5.901 -3.7,5.903 -3.788,5.879 -3.975,5.827 -3.881,5.657 -3.767,5.566 -3.471,5.329 -3.062,5.27 -2.729,5.117 -2.695,5.102 -2.424,4.972 -2.177,4.854 -1.798,4.661 -1.793,4.667 -1.441,4.437 -1.104,4.187 -1.11,4.181 -0.821,3.887 -0.68,3.735 -0.623,3.647 -0.564,3.563 -0.502,3.479 -0.451,3.389 -0.344,3.212 -0.152,2.845 -0.092,2.869 0.047,2.47 0.115,2.27 0.127,2.163 0.146,2.06 0.169,1.957 0.175,1.851 0.206,1.644 0.236,1.225 0.248,1.223 0.22,0.804 0.171,0.386 0.106,0.396 0,0"
       style="fill:#4e6045;fill-opacity:1;fill-rule:nonzero;stroke:none;stroke-width:1.00062997;stroke-dasharray:none"
       transform="matrix(0.35277776,0,0,-0.35277776,116.61719,148.64244)"
       clip-path="url(#clipPath2006)" />
    <path
       id="path2007"
       d="M 0,0 C 0.29,0.035 0.369,0.084 0.535,0.123 0.603,0.201 0.631,0.304 0.572,0.44 0.464,0.695 0.221,0.696 0.074,0.7 -0.061,0.708 -0.193,0.698 -0.327,0.693 -0.497,0.648 -0.568,0.612 -0.852,0.592 -1.233,0.591 -1.234,0.561 -1.616,0.585 -2,0.604 -1.987,0.734 -2.362,0.775 -2.734,0.84 -2.749,0.764 -3.121,0.852 c -0.37,0.091 -0.344,0.189 -0.702,0.302 -0.357,0.121 -0.39,0.033 -0.742,0.179 -0.345,0.164 -0.32,0.218 -0.649,0.401 -0.332,0.18 -0.32,0.2 -0.64,0.399 -0.263,0.193 -0.31,0.203 -0.504,0.362 -0.082,0.031 -0.173,0.05 -0.274,0.034 -0.213,-0.031 -0.249,-0.26 -0.2,-0.399 0.125,-0.367 0.503,-0.514 0.778,-0.719 0.029,-0.019 0.253,-0.204 0.487,-0.325 0.359,-0.2 0.37,-0.179 0.741,-0.355 0.38,-0.157 0.376,-0.168 0.764,-0.299 0.392,-0.124 0.387,-0.144 0.787,-0.243 0.401,-0.093 0.42,0.005 0.821,-0.064 0.404,-0.045 0.4,-0.089 0.809,-0.108 0.409,-0.025 0.41,0 0.818,0.002 C -0.419,0.042 -0.411,-0.052 0,0"
       style="fill:#4e6045;fill-opacity:1;fill-rule:nonzero;stroke:none;stroke-width:1.00062997;stroke-dasharray:none"
       transform="matrix(0.35277776,0,0,-0.35277776,140.33772,148.59492)"
       clip-path="url(#clipPath2008)" />
    <path
       id="path2009"
       d="M 0,0 C 0.315,-0.026 0.412,0.005 0.596,0.03 0.679,0.104 0.717,0.203 0.669,0.345 0.579,0.606 0.357,0.629 0.224,0.67 0.101,0.703 -0.022,0.72 -0.145,0.754 -0.31,0.763 -0.39,0.735 -0.653,0.817 -1.005,0.941 -1.012,0.929 -1.355,1.093 -1.696,1.268 -1.636,1.373 -1.967,1.569 -2.3,1.772 -2.336,1.716 -2.674,1.925 -3.016,2.134 -2.963,2.222 -3.324,2.422 -3.694,2.615 -3.735,2.53 -4.123,2.688 -4.521,2.83 -4.502,2.901 -4.931,2.987 -5.364,3.045 -5.366,3.058 -5.815,3.037 -6.206,2.988 -6.259,2.964 -6.55,2.862 -6.636,2.799 -6.71,2.719 -6.742,2.616 c -0.066,-0.212 0.16,-0.322 0.283,-0.345 0.173,-0.035 0.313,-0.015 0.461,0.014 0.146,0.029 0.3,0.061 0.448,0.048 0.03,-0.001 0.275,-0.034 0.498,-0.075 0.349,-0.07 0.355,-0.061 0.696,-0.182 C -4.017,1.937 -4.02,1.926 -3.685,1.752 -3.352,1.566 -3.362,1.549 -3.03,1.347 -2.695,1.139 -2.647,1.215 -2.305,1.006 -1.958,0.801 -1.974,0.77 -1.605,0.581 -1.23,0.403 -1.227,0.41 -0.829,0.271 -0.423,0.151 -0.441,0.06 0,0"
       style="fill:#4e6045;fill-opacity:1;fill-rule:nonzero;stroke:none;stroke-width:1.00062997;stroke-dasharray:none"
       transform="matrix(0.35277776,0,0,-0.35277776,140.32912,148.55633)"
       clip-path="url(#clipPath2010)" />
    <path
       id="path2011"
       d="M 0,0 C 0.223,0.179 0.265,0.26 0.367,0.391 0.372,0.492 0.328,0.587 0.199,0.66 -0.042,0.795 -0.205,0.681 -0.315,0.626 -0.417,0.577 -0.504,0.511 -0.603,0.461 -0.71,0.365 -0.741,0.295 -0.959,0.192 -1.258,0.07 -1.255,0.055 -1.572,-0.026 -1.897,-0.089 -1.914,0.031 -2.231,0.009 -2.551,0.003 -2.556,-0.064 -2.882,-0.031 -3.207,0.018 -3.188,0.116 -3.503,0.197 -3.816,0.291 -3.849,0.198 -4.164,0.32 -4.476,0.452 -4.445,0.519 -4.748,0.668 -5.049,0.825 -5.044,0.834 -5.341,1.006 -5.596,1.157 -5.634,1.174 -5.83,1.295 -5.91,1.312 -5.997,1.317 -6.088,1.287 -6.282,1.224 -6.298,0.995 -6.248,0.87 -6.115,0.545 -5.771,0.458 -5.521,0.283 -5.497,0.266 -5.29,0.115 -5.082,0.009 c 0.329,-0.163 0.334,-0.154 0.675,-0.297 0.345,-0.134 0.343,-0.142 0.702,-0.248 0.365,-0.094 0.359,-0.113 0.738,-0.17 0.384,-0.039 0.389,0.052 0.765,0.059 0.375,0.026 0.38,-0.007 0.756,0.066 0.371,0.095 0.369,0.105 0.725,0.251 C -0.375,-0.16 -0.327,-0.236 0,0"
       style="fill:#4e6045;fill-opacity:1;fill-rule:nonzero;stroke:none"
       transform="matrix(0.35277776,0,0,-0.35277776,143.87961,145.85535)"
       clip-path="url(#clipPath2012)" />
    <path
       id="path2013"
       d="M 0,0 C 0.291,0.118 0.359,0.194 0.505,0.306 0.54,0.409 0.521,0.514 0.409,0.612 0.2,0.794 0.014,0.716 -0.114,0.695 -0.229,0.673 -0.335,0.637 -0.449,0.618 -0.588,0.56 -0.644,0.502 -0.898,0.477 -1.242,0.46 -1.245,0.446 -1.595,0.482 -1.946,0.535 -1.918,0.654 -2.26,0.745 -2.603,0.848 -2.625,0.784 -2.974,0.907 -3.324,1.034 -3.289,1.129 -3.648,1.258 -4.016,1.384 -4.044,1.295 -4.422,1.4 -4.806,1.494 -4.792,1.567 -5.198,1.619 -5.608,1.649 -5.61,1.662 -6.031,1.628 -6.398,1.573 -6.447,1.549 -6.722,1.452 -6.802,1.391 -6.871,1.313 -6.901,1.213 -6.961,1.006 -6.744,0.89 -6.625,0.862 -6.304,0.785 -6.052,0.948 -5.754,0.933 -5.726,0.932 -5.49,0.908 -5.272,0.884 -4.932,0.84 -4.929,0.85 -4.588,0.766 -4.245,0.67 -4.247,0.659 -3.901,0.54 -3.553,0.415 -3.56,0.396 -3.202,0.267 -2.84,0.14 -2.811,0.225 -2.438,0.112 c 0.378,-0.099 0.374,-0.134 0.773,-0.195 0.403,-0.041 0.405,-0.032 0.815,-0.012 0.206,0.017 0.313,0.017 0.421,0.016 0.11,0 0.222,0.003 0.429,0.079"
       style="fill:#4e6045;fill-opacity:1;fill-rule:nonzero;stroke:none"
       transform="matrix(0.35277776,0,0,-0.35277776,144.10733,145.78233)"
       clip-path="url(#clipPath2014)" />
    <path
       id="path2015"
       d="m 0,0 c 0.507,-0.351 0.66,-0.448 0.949,-0.665 0.173,-0.058 0.322,-0.054 0.365,0.097 0.085,0.283 -0.336,0.68 -0.6,0.905 C 0.47,0.544 0.207,0.732 -0.062,0.909 -0.244,1.014 -0.381,1.076 -0.546,1.153 -0.708,1.234 -0.899,1.33 -1.202,1.482 -1.611,1.686 -1.82,1.779 -2.033,1.863 -2.243,1.951 -2.456,2.034 -2.884,2.192 -3.315,2.341 -3.523,2.438 -3.736,2.528 -3.947,2.623 -4.163,2.709 -4.611,2.813 -5.062,2.911 -5.292,2.93 -5.521,2.948 -5.751,2.967 -5.98,2.981 -6.437,3.023 -7.35,3.089 -7.349,3.187 -8.271,3.164 -9.193,3.106 -9.185,3.012 -10.089,2.872 -10.539,2.79 -10.768,2.762 -10.994,2.724 -11.222,2.689 -11.449,2.65 -11.892,2.52 -12.33,2.38 -12.548,2.307 -12.764,2.226 -12.98,2.149 -13.195,2.064 -13.617,1.88 -13.98,1.713 -14.183,1.611 -14.36,1.513 -14.542,1.42 -14.697,1.328 -14.963,1.174 -15.127,1.052 -15.27,0.901 -15.364,0.757 c -0.197,-0.31 0.162,-0.322 0.43,-0.245 0.706,0.2 1.379,0.663 2.08,0.916 0.068,0.029 0.651,0.221 1.183,0.385 0.419,0.124 0.631,0.181 0.843,0.233 0.211,0.057 0.426,0.102 0.855,0.181 0.865,0.133 0.867,0.124 1.739,0.176 0.873,0.022 0.874,0.005 1.743,-0.056 0.433,-0.042 0.653,-0.048 0.873,-0.06 0.22,-0.012 0.44,-0.023 0.87,-0.116 0.428,-0.1 0.639,-0.162 0.847,-0.234 C -3.691,1.872 -3.485,1.798 -3.07,1.655 -2.659,1.503 -2.456,1.422 -2.254,1.336 -2.05,1.255 -1.851,1.163 -1.457,0.968 -0.682,0.557 -0.728,0.476 0,0"
       style="fill:#4e6045;fill-opacity:1;fill-rule:nonzero;stroke:none;stroke-width:1.00062997;stroke-dasharray:none"
       transform="matrix(0.35277776,0,0,-0.35277776,112.17819,147.64337)"
       clip-path="url(#clipPath2016)" />
    <path
       id="path2017"
       d="m 0,0 c -0.278,0.124 -0.463,0.086 -0.608,0.048 -0.145,-0.047 -0.263,-0.113 -0.386,-0.252 -0.071,-0.185 0.009,-0.301 0.155,-0.314 0.28,-0.024 0.373,-0.047 0.462,-0.079 0.06,-0.025 0.077,-0.051 0.086,-0.071 0.001,-0.007 0.003,-0.012 0.004,-0.019 0.032,-0.03 0.102,-0.123 -0.005,-0.262 -0.072,-0.071 -0.135,-0.075 -0.197,-0.079 -0.062,0.002 -0.145,0.007 -0.251,0.098 -0.097,0.095 -0.081,0.183 -0.063,0.248 0.023,0.068 0.048,0.13 0.095,0.245 0.054,0.111 0.087,0.151 0.132,0.206 0.045,0.048 0.108,0.104 0.261,0.12 0.152,0.007 0.214,-0.052 0.255,-0.097 0.041,-0.054 0.067,-0.09 0.107,-0.173 0.039,-0.092 0.062,-0.158 0.08,-0.225 0.015,-0.065 0.023,-0.154 -0.055,-0.25 -0.084,-0.089 -0.144,-0.075 -0.195,-0.066 -0.053,0.015 -0.107,0.031 -0.212,0.085 -0.102,0.063 -0.119,0.112 -0.134,0.147 -0.009,0.038 -0.021,0.063 0.005,0.12 0.075,0.115 0.15,0.153 0.259,0.169 0.036,0.027 0.072,0.064 0.145,0.111 0.076,0.044 0.154,0.101 0.171,0.185 0.023,0.083 -0.022,0.195 -0.109,0.257 -0.231,0.176 -0.566,0.124 -0.795,-0.039 -0.237,-0.157 -0.406,-0.467 -0.399,-0.787 0.002,-0.029 -0.004,-0.181 0.077,-0.356 0.077,-0.175 0.235,-0.349 0.418,-0.451 0.292,-0.153 0.476,-0.15 0.649,-0.134 0.166,0.026 0.381,0.071 0.617,0.331 0.214,0.27 0.233,0.441 0.262,0.596 0.013,0.157 0.035,0.325 -0.099,0.635 C 0.66,0.101 0.568,0.205 0.489,0.276 0.41,0.35 0.337,0.396 0.264,0.437 0.115,0.51 -0.048,0.582 -0.366,0.566 -0.684,0.534 -0.823,0.428 -0.942,0.327 c -0.114,-0.108 -0.24,-0.226 -0.368,-0.5 -0.113,-0.28 -0.109,-0.441 -0.099,-0.598 0.008,-0.079 0.022,-0.16 0.06,-0.256 0.038,-0.093 0.105,-0.216 0.23,-0.327 0.257,-0.214 0.437,-0.231 0.603,-0.245 0.085,-0.004 0.174,0.005 0.281,0.036 0.103,0.03 0.243,0.093 0.365,0.225 0.191,0.224 0.231,0.392 0.265,0.547 0.018,0.156 0.034,0.326 -0.124,0.564 C 0.224,-0.162 0.136,-0.065 0,0"
       style="fill:#4e6045;fill-opacity:1;fill-rule:nonzero;stroke:none;stroke-width:1.00062997;stroke-dasharray:none"
       transform="matrix(0.35277776,0,0,-0.35277776,112.76144,147.69124)"
       clip-path="url(#clipPath2018)" />
    <path
       id="path2019"
       d="m 0,0 c -0.782,0.676 -1.426,1.233 -1.981,1.713 -0.138,0.121 -0.276,0.231 -0.399,0.348 -0.121,0.119 -0.238,0.233 -0.35,0.343 -0.227,0.22 -0.438,0.425 -0.639,0.621 -0.403,0.392 -0.769,0.746 -1.142,1.107 -0.357,0.376 -0.706,0.775 -1.113,1.223 -0.825,0.801 -1.411,1.269 -1.28,0.83 0.123,-0.411 0.795,-1.327 1.622,-2.355 0.424,-0.505 0.924,-1.001 1.391,-1.495 0.477,-0.485 0.917,-0.974 1.348,-1.336 0.387,-0.347 0.776,-0.693 1.165,-1.041 0.394,-0.342 0.77,-0.706 1.193,-1.015 l 1.242,-0.96 c 0.419,-0.311 0.815,-0.657 1.256,-0.937 0.575,-0.373 1.066,-0.692 1.538,-0.997 0.235,-0.153 0.466,-0.301 0.7,-0.452 0.237,-0.147 0.488,-0.278 0.743,-0.425 0.514,-0.292 1.073,-0.609 1.744,-0.991 0.33,-0.202 0.709,-0.38 1.12,-0.587 0.411,-0.206 0.859,-0.432 1.354,-0.68 0.335,-0.163 0.639,-0.336 0.943,-0.462 0.302,-0.13 0.585,-0.252 0.852,-0.367 0.535,-0.23 1.006,-0.431 1.433,-0.614 0.424,-0.194 0.822,-0.326 1.194,-0.46 0.373,-0.133 0.723,-0.259 1.074,-0.384 0.35,-0.126 0.701,-0.251 1.074,-0.384 0.375,-0.125 0.78,-0.232 1.226,-0.366 0.894,-0.257 1.957,-0.605 3.416,-0.907 0.727,-0.159 1.357,-0.332 1.929,-0.432 0.573,-0.102 1.077,-0.191 1.535,-0.273 0.458,-0.085 0.871,-0.162 1.26,-0.235 0.392,-0.051 0.762,-0.1 1.132,-0.148 0.37,-0.048 0.74,-0.095 1.133,-0.146 0.197,-0.024 0.399,-0.049 0.611,-0.076 0.211,-0.029 0.431,-0.052 0.664,-0.059 0.467,-0.024 0.979,-0.05 1.562,-0.08 0.583,-0.018 1.236,-0.079 1.983,-0.041 1.493,0.044 2.615,0.048 3.543,0.173 0.928,0.101 1.674,0.161 2.412,0.268 0.368,0.059 0.736,0.119 1.127,0.183 0.391,0.061 0.806,0.125 1.262,0.219 0.457,0.088 0.96,0.185 1.531,0.294 0.568,0.125 1.204,0.266 1.93,0.426 1.446,0.347 2.529,0.615 3.425,0.856 0.901,0.228 1.615,0.43 2.332,0.623 1.432,0.393 2.86,0.805 5.675,1.728 2.813,0.925 4.205,1.42 5.602,1.898 0.699,0.237 1.397,0.482 2.277,0.756 0.877,0.285 1.937,0.601 3.357,0.996 0.713,0.185 1.337,0.346 1.894,0.491 0.56,0.127 1.054,0.238 1.502,0.339 0.897,0.206 1.619,0.33 2.343,0.451 1.448,0.224 2.899,0.46 5.821,0.651 1.461,0.086 2.559,0.083 3.473,0.063 0.456,-0.009 0.867,-0.026 1.254,-0.049 0.388,-0.017 0.752,-0.047 1.116,-0.077 0.728,-0.059 1.453,-0.142 2.355,-0.272 0.9,-0.142 1.98,-0.321 3.389,-0.685 2.439,-0.65 3.75,-1.237 4.907,-1.776 1.147,-0.562 2.158,-1.095 3.712,-2.237 1.049,-0.736 2.01,-1.551 2.777,-2.213 0.794,-0.723 0.937,-0.702 0.728,-0.312 -0.107,0.193 -0.291,0.487 -0.541,0.806 -0.257,0.312 -0.548,0.679 -0.88,0.999 -0.845,0.866 -1.821,1.678 -2.895,2.395 -1.074,0.714 -2.241,1.339 -3.455,1.863 -2.432,1.054 -5.04,1.698 -7.533,2.093 -0.251,0.034 -1.412,0.232 -2.999,0.347 -1.584,0.128 -3.591,0.148 -5.497,0.037 -2.984,-0.197 -4.459,-0.466 -5.93,-0.724 -0.733,-0.137 -1.469,-0.278 -2.373,-0.497 -0.453,-0.108 -0.951,-0.225 -1.518,-0.358 -0.562,-0.147 -1.192,-0.311 -1.911,-0.5 -1.432,-0.399 -2.502,-0.709 -3.389,-0.983 -0.89,-0.264 -1.594,-0.493 -2.302,-0.714 -1.414,-0.447 -2.822,-0.91 -5.632,-1.835 -2.81,-0.92 -4.219,-1.354 -5.634,-1.769 -0.708,-0.205 -1.414,-0.418 -2.303,-0.654 -0.887,-0.249 -1.956,-0.52 -3.386,-0.862 -2.864,-0.662 -4.316,-0.87 -5.762,-1.118 -0.726,-0.105 -1.456,-0.171 -2.368,-0.272 -0.91,-0.128 -2.012,-0.127 -3.48,-0.173 -0.733,-0.039 -1.375,0.026 -1.948,0.039 -0.573,0.023 -1.077,0.044 -1.536,0.063 -0.915,0.064 -1.643,0.169 -2.373,0.24 -0.364,0.043 -0.73,0.074 -1.116,0.128 -0.384,0.067 -0.791,0.136 -1.243,0.213 -0.452,0.077 -0.95,0.161 -1.515,0.256 -0.564,0.1 -1.186,0.266 -1.902,0.424 -1.438,0.298 -2.484,0.645 -3.366,0.897 -0.439,0.134 -0.84,0.236 -1.208,0.364 -0.367,0.131 -0.712,0.255 -1.057,0.379 -1.386,0.483 -2.766,0.996 -5.414,2.262 C 9.156,-6.048 8.583,-5.757 8.072,-5.497 7.56,-5.24 7.14,-4.957 6.743,-4.729 6.35,-4.492 5.997,-4.278 5.663,-4.077 5.329,-3.877 5.016,-3.687 4.72,-3.469 4.118,-3.051 3.516,-2.634 2.763,-2.111 2.381,-1.859 1.999,-1.528 1.542,-1.186 1.088,-0.837 0.581,-0.446 0,0"
       style="fill:#4e6045;fill-opacity:1;fill-rule:nonzero;stroke:none;stroke-width:1.00062997;stroke-dasharray:none"
       transform="matrix(0.35277776,0,0,-0.35277776,67.545274,145.10743)"
       clip-path="url(#clipPath2020)" />
    <path
       id="path2021"
       d="M 0,0 C 0.103,-0.048 0.204,-0.083 0.306,-0.13 0.667,-0.312 0.755,-0.723 0.593,-0.961 0.472,-1.145 -0.001,-1.217 -0.262,-1.154 -0.597,-1.076 -0.69,-0.727 -0.515,-0.403 -0.426,-0.247 -0.247,-0.141 0,0 m 9.369,-3.08 c 0.182,0.553 0.363,1.118 0.557,1.673 0.043,0.138 0.161,0.25 0.241,0.381 0.067,-0.149 0.195,-0.301 0.191,-0.458 C 10.381,-2.518 9.905,-3.409 9.479,-4.319 9.448,-4.359 9.341,-4.373 9.285,-4.404 9.276,-4.333 9.255,-4.264 9.258,-4.191 9.3,-3.86 9.342,-3.529 9.369,-3.08 M -1.498,0.411 C -1.584,0.327 -1.68,0.23 -1.766,0.147 c 0.113,-0.033 0.235,-0.042 0.327,-0.102 0.13,-0.08 0.277,-0.193 0.316,-0.31 0.032,-0.152 -0.061,-0.464 -0.098,-0.458 -0.407,-0.015 -0.892,-0.089 -1.227,0.084 -0.495,0.286 -1.124,0.592 -1.062,1.335 0.01,0.11 0.319,0.329 0.395,0.303 0.614,-0.282 0.805,-0.174 0.726,0.539 -0.038,0.296 0.266,0.649 0.473,0.916 0.073,0.093 0.449,0.069 0.547,-0.039 0.372,-0.362 0.712,-0.765 1.009,-1.196 0.104,-0.156 0.019,-0.432 0.035,-0.658 -0.16,0.124 -0.308,0.25 -0.457,0.375 -0.107,0.083 -0.208,0.214 -0.33,0.223 -0.111,0.022 -0.229,-0.09 -0.343,-0.14 0.07,-0.076 0.151,-0.15 0.231,-0.211 C -1.063,0.684 -0.891,0.561 -0.73,0.437 -0.923,0.436 -1.127,0.434 -1.32,0.434 -1.344,0.431 -1.356,0.429 -1.498,0.411 m 2.46,-2.758 c -0.051,0.403 -0.051,0.403 0.334,0.597 0.034,0.016 -0.02,0.153 -0.017,0.227 0.009,0.121 0.031,0.232 0.053,0.343 0.08,-0.061 0.16,-0.124 0.23,-0.199 0.058,-0.077 0.083,-0.183 0.148,-0.222 0.195,-0.108 0.397,-0.178 0.588,-0.262 -0.069,0.16 -0.159,0.304 -0.216,0.467 -0.038,0.103 -0.099,0.299 -0.077,0.315 0.61,0.318 1.633,-0.142 1.79,-0.808 C 3.887,-2.323 3.967,-2.759 3.292,-2.856 3.14,-2.888 3.027,-3.228 2.91,-3.447 2.792,-3.655 2.762,-3.984 2.592,-4.066 2.398,-4.151 2.065,-4.098 1.859,-3.991 1.288,-3.667 0.979,-3.14 0.962,-2.347 M 0.138,1.282 C 0.271,1.842 0.38,2.397 0.539,2.948 0.663,3.397 1.026,3.661 1.461,3.656 1.908,3.641 2.195,3.376 2.236,2.863 2.27,2.507 2.43,2.201 2.913,2.287 3.043,2.304 3.297,2.204 3.347,2.09 3.598,1.64 3.753,1.178 3.508,0.641 3.131,-0.179 2.404,-0.332 1.678,-0.497 1.49,-0.533 1.269,-0.404 1.068,-0.346 1.219,-0.206 1.395,-0.075 1.533,0.075 1.606,0.156 1.64,0.27 1.701,0.361 1.637,0.39 1.57,0.441 1.512,0.422 1.334,0.399 1.161,0.341 0.999,0.296 1.096,0.477 1.181,0.656 1.278,0.838 1.305,0.913 1.345,0.979 1.348,1.052 1.356,1.173 1.339,1.304 1.336,1.423 1.185,1.38 1.019,1.358 0.896,1.283 0.83,1.238 0.826,1.081 0.779,0.979 0.687,0.75 0.583,0.532 0.491,0.304 0.385,0.567 0.266,0.841 0.16,1.104 0.159,1.116 0.156,1.14 0.138,1.282 m -3.303,-3.855 c 0.481,0.664 1.139,1.085 1.916,1.317 C -1.11,-1.214 -0.93,-1.3 -0.77,-1.327 -0.828,-1.443 -0.898,-1.549 -0.958,-1.652 -1.015,-1.769 -1.046,-1.905 -1.13,-2 c -0.241,-0.283 -0.279,-0.554 -0.037,-0.836 0.121,0.184 0.23,0.366 0.352,0.539 0.072,0.094 0.145,0.187 0.217,0.28 0.037,-0.103 0.063,-0.208 0.111,-0.298 0.059,-0.089 0.141,-0.164 0.224,-0.248 0.037,0.088 0.099,0.168 0.136,0.257 0.034,0.114 0.027,0.257 0.073,0.371 0.047,0.103 0.135,0.174 0.195,0.266 0.058,-0.077 0.141,-0.163 0.164,-0.244 0.06,-0.378 0.098,-0.771 0.147,-1.15 0.088,-0.687 -0.136,-1.294 -0.523,-1.85 -0.113,-0.158 -0.324,-0.294 -0.5,-0.328 -0.528,-0.116 -0.8,0.126 -0.973,0.924 -0.06,0.281 -0.077,0.315 -0.369,0.241 -0.456,-0.107 -0.971,-0.317 -1.377,0.126 -0.393,0.431 -0.01,0.83 0.081,1.251 -10e-4,0.011 -0.005,0.035 0.044,0.126 M 8.857,-2.845 C 8.806,-3.574 8.772,-4.253 8.676,-4.916 8.652,-5.111 8.431,-5.261 8.31,-5.444 8.242,-5.573 8.211,-5.71 8.156,-5.85 c 0.131,0.017 0.266,-0.002 0.381,0.038 0.93,0.359 1.31,1.25 1.742,2.017 0.499,0.906 0.842,1.902 0.45,2.984 -0.016,0.035 0.033,0.125 0.068,0.129 0.984,0.223 1.974,0.398 2.955,0.631 1.799,0.447 3.636,0.682 5.366,1.384 1.272,0.512 2.647,0.784 3.935,1.262 1.438,0.533 2.868,1.126 4.254,1.784 1.521,0.725 3.006,1.553 4.492,2.369 0.158,0.08 0.235,0.331 0.344,0.514 C 31.941,7.236 31.695,7.277 31.526,7.183 30.288,6.507 29.083,5.751 27.813,5.131 26.541,4.522 25.206,4.038 23.885,3.532 22.506,3.007 21.126,2.493 19.725,2.05 17.93,1.482 16.111,1.01 14.309,0.502 14.041,0.432 13.749,0.455 13.479,0.396 12.332,0.129 11.201,-0.16 10.049,-0.392 9.661,-0.465 9.246,-0.422 8.851,-0.436 8.348,-0.464 7.847,-0.504 7.342,-0.508 6.39,-0.51 5.436,-0.486 4.484,-0.487 4.193,-0.477 3.907,-0.501 3.618,-0.502 3.534,-0.501 3.457,-0.462 3.371,-0.449 3.407,-0.36 3.431,-0.261 3.494,-0.192 4.29,0.656 4.426,1.288 3.977,2.255 3.91,2.402 3.78,2.566 3.641,2.621 3.071,2.838 2.741,3.253 2.436,3.757 2.143,4.261 1.567,4.332 1.101,4.212 0.506,4.052 0.083,3.601 -0.078,2.966 -0.149,2.68 -0.223,2.405 -0.308,2.129 -0.489,2.322 -0.693,2.501 -0.876,2.707 -1.482,3.4 -2.365,3.239 -2.769,2.345 -2.816,2.242 -2.838,2.131 -2.848,2.021 -2.881,1.716 -3.012,1.603 -3.35,1.607 -3.818,1.597 -4.156,1.132 -4.118,0.643 c 0.062,-0.86 0.585,-1.372 1.337,-1.698 0.116,-0.056 0.232,-0.114 0.336,-0.174 -0.088,-0.071 -0.175,-0.142 -0.263,-0.202 -0.687,-0.472 -1.191,-1.055 -1.261,-1.92 -0.091,-1.084 0.439,-1.365 1.397,-1.412 0.376,-0.023 0.612,-0.078 0.763,-0.408 0.463,-0.989 1.894,-0.963 2.308,0.138 0.068,0.214 0.164,0.407 0.257,0.624 0.074,0.178 0.146,0.368 0.22,0.546 0.149,-0.138 0.323,-0.272 0.442,-0.449 0.265,-0.376 0.655,-0.507 1.066,-0.418 0.456,0.106 0.848,0.336 0.974,0.859 0.045,0.21 0.158,0.466 0.323,0.583 0.747,0.565 0.863,1.17 0.305,1.954 -0.086,0.109 -0.152,0.246 -0.23,0.381 0.18,0.011 0.358,0.033 0.528,0.018 0.404,-0.044 0.804,-0.162 1.212,-0.146 1.198,0.045 2.404,0.139 3.599,0.207 0.168,0.01 0.328,-0.019 0.497,-0.021 C 9.614,-1.037 9.533,-1.156 9.466,-1.297 9.265,-1.793 9.051,-2.29 8.857,-2.845"
       style="fill:#4e6045;fill-opacity:1;fill-rule:nonzero;stroke:none;stroke-width:1.00062997;stroke-dasharray:none"
       transform="matrix(0.35277776,0,0,-0.35277776,73.029522,150.94033)"
       clip-path="url(#clipPath2022)" />
    <path
       id="path2023"
       d="M 0,0 C 0.077,-0.082 0.158,-0.152 0.235,-0.234 0.5,-0.539 0.429,-0.953 0.189,-1.112 c -0.181,-0.125 -0.647,-0.015 -0.865,0.141 -0.282,0.198 -0.236,0.556 0.048,0.79 C -0.488,-0.069 -0.282,-0.037 0,0 m 7.53,-6.368 c 0.377,0.444 0.757,0.901 1.144,1.343 0.092,0.111 0.243,0.171 0.366,0.261 C 9.047,-4.926 9.108,-5.115 9.045,-5.259 8.68,-6.226 7.904,-6.874 7.168,-7.558 7.124,-7.583 7.02,-7.556 6.956,-7.563 c 0.019,0.069 0.025,0.141 0.055,0.208 0.163,0.29 0.326,0.581 0.519,0.987 M -1.235,0.943 C -1.345,0.898 -1.471,0.845 -1.582,0.8 -1.49,0.726 -1.38,0.673 -1.317,0.582 -1.226,0.459 -1.132,0.298 -1.14,0.177 -1.168,0.023 -1.371,-0.232 -1.402,-0.211 c -0.384,0.138 -0.861,0.251 -1.107,0.538 -0.351,0.45 -0.82,0.97 -0.484,1.635 0.05,0.098 0.419,0.186 0.48,0.133 0.463,-0.492 0.681,-0.463 0.875,0.227 0.076,0.289 0.49,0.501 0.782,0.671 0.103,0.06 0.442,-0.103 0.493,-0.24 C -0.154,2.277 0.01,1.777 0.123,1.266 0.161,1.082 -0.021,0.858 -0.09,0.642 -0.193,0.817 -0.283,0.989 -0.374,1.161 -0.442,1.278 -0.486,1.438 -0.596,1.492 -0.691,1.554 -0.842,1.495 -0.967,1.49 -0.931,1.395 -0.882,1.295 -0.832,1.208 -0.729,1.032 -0.616,0.854 -0.513,0.679 -0.692,0.751 -0.882,0.826 -1.062,0.897 -1.084,0.903 -1.096,0.906 -1.235,0.943 m 1.247,-3.479 c 0.104,0.392 0.104,0.392 0.533,0.428 0.038,0.003 0.039,0.15 0.069,0.216 0.054,0.11 0.116,0.205 0.178,0.3 0.051,-0.088 0.102,-0.176 0.139,-0.271 0.025,-0.093 0.009,-0.2 0.054,-0.262 0.14,-0.173 0.301,-0.313 0.447,-0.464 -0.004,0.175 -0.034,0.343 -0.026,0.514 0.005,0.11 0.022,0.315 0.048,0.321 0.685,0.067 1.46,-0.742 1.356,-1.42 C 2.732,-3.61 2.643,-4.044 1.981,-3.882 1.828,-3.854 1.596,-4.127 1.405,-4.287 1.218,-4.436 1.066,-4.729 0.878,-4.741 c -0.212,-0.006 -0.5,0.169 -0.651,0.345 -0.408,0.514 -0.497,1.119 -0.215,1.86 M 0.608,1.138 C 0.941,1.606 1.252,2.08 1.605,2.531 1.888,2.901 2.324,3.01 2.725,2.842 3.134,2.66 3.301,2.308 3.147,1.816 3.044,1.473 3.078,1.131 3.558,1.029 3.685,0.995 3.882,0.808 3.887,0.683 3.95,0.172 3.921,-0.314 3.493,-0.721 2.836,-1.339 2.104,-1.208 1.369,-1.089 1.181,-1.052 1.024,-0.85 0.861,-0.721 c 0.192,0.074 0.404,0.129 0.588,0.216 0.099,0.049 0.173,0.141 0.263,0.203 C 1.664,-0.252 1.621,-0.179 1.56,-0.176 1.387,-0.13 1.205,-0.119 1.037,-0.1 1.195,0.032 1.341,0.166 1.5,0.298 1.552,0.358 1.614,0.403 1.644,0.47 1.697,0.579 1.73,0.706 1.772,0.819 1.616,0.835 1.455,0.878 1.312,0.854 1.233,0.837 1.171,0.693 1.089,0.616 0.918,0.438 0.74,0.275 0.569,0.098 0.57,0.382 0.562,0.681 0.562,0.965 0.566,0.976 0.572,0.999 0.608,1.138 m -4.507,-2.336 c 0.695,0.435 1.462,0.579 2.27,0.503 0.145,-0.014 0.279,-0.16 0.418,-0.246 -0.097,-0.086 -0.203,-0.158 -0.296,-0.232 -0.097,-0.085 -0.177,-0.2 -0.29,-0.257 -0.33,-0.173 -0.466,-0.409 -0.349,-0.76 0.182,0.125 0.351,0.253 0.529,0.367 0.102,0.059 0.205,0.119 0.307,0.178 -0.004,-0.11 -0.02,-0.216 -0.01,-0.318 0.022,-0.104 0.07,-0.204 0.115,-0.314 0.068,0.068 0.155,0.119 0.223,0.188 0.073,0.092 0.122,0.228 0.207,0.317 0.082,0.077 0.19,0.11 0.28,0.172 0.025,-0.092 0.07,-0.203 0.06,-0.287 -0.086,-0.373 -0.197,-0.752 -0.295,-1.121 -0.176,-0.671 -0.611,-1.149 -1.178,-1.519 -0.164,-0.105 -0.41,-0.152 -0.587,-0.118 -0.532,0.091 -0.693,0.417 -0.556,1.222 0.05,0.283 0.048,0.321 -0.251,0.362 -0.462,0.073 -1.019,0.071 -1.229,0.633 -0.202,0.547 0.302,0.773 0.544,1.129 0.003,0.012 0.009,0.035 0.088,0.101 M 7.144,-5.957 C 6.823,-6.614 6.537,-7.231 6.2,-7.81 6.104,-7.982 5.843,-8.037 5.662,-8.162 5.55,-8.257 5.471,-8.372 5.368,-8.48 c 0.127,-0.034 0.245,-0.102 0.367,-0.11 0.997,-0.014 1.683,0.67 2.371,1.218 0.803,0.653 1.494,1.448 1.537,2.599 -0.003,0.037 0.076,0.102 0.111,0.093 0.995,-0.163 1.978,-0.372 2.976,-0.523 1.835,-0.261 3.626,-0.732 5.493,-0.729 1.371,-0.003 2.747,-0.265 4.121,-0.305 1.532,-0.046 3.081,-0.033 4.612,0.058 1.683,0.101 3.369,0.313 5.053,0.512 0.177,0.015 0.342,0.219 0.512,0.348 -0.197,0.05 -0.41,0.181 -0.602,0.157 -1.401,-0.162 -2.802,-0.411 -4.211,-0.51 -1.408,-0.087 -2.827,-0.035 -4.241,-0.009 -1.475,0.031 -2.947,0.072 -4.413,0.185 -1.876,0.148 -3.74,0.392 -5.601,0.597 -0.275,0.035 -0.537,0.166 -0.809,0.212 -1.163,0.183 -2.321,0.339 -3.475,0.557 -0.387,0.077 -0.755,0.273 -1.127,0.408 -0.477,0.162 -0.957,0.313 -1.426,0.498 -0.883,0.357 -1.76,0.736 -2.642,1.091 -0.266,0.119 -0.54,0.204 -0.808,0.312 -0.078,0.033 -0.135,0.097 -0.21,0.141 0.068,0.069 0.127,0.153 0.211,0.192 C 4.223,-1 4.586,-0.465 4.532,0.6 4.525,0.762 4.467,0.963 4.358,1.065 3.911,1.479 3.761,1.988 3.667,2.569 3.584,3.147 3.077,3.429 2.6,3.493 1.989,3.567 1.426,3.308 1.04,2.779 0.866,2.54 0.695,2.313 0.513,2.09 0.417,2.337 0.296,2.579 0.203,2.839 -0.099,3.709 -0.978,3.891 -1.688,3.213 -1.77,3.135 -1.832,3.04 -1.882,2.942 -2.028,2.672 -2.191,2.616 -2.502,2.747 -2.941,2.912 -3.429,2.607 -3.577,2.14 -3.842,1.32 -3.548,0.649 -2.973,0.066 c 0.086,-0.097 0.171,-0.194 0.245,-0.287 -0.107,-0.034 -0.215,-0.067 -0.319,-0.089 -0.814,-0.181 -1.499,-0.532 -1.889,-1.307 -0.49,-0.971 -0.105,-1.431 0.766,-1.833 0.34,-0.163 0.538,-0.302 0.554,-0.664 0.059,-1.091 1.395,-1.604 2.191,-0.738 0.144,0.172 0.305,0.315 0.472,0.481 0.136,0.138 0.274,0.287 0.409,0.425 0.087,-0.185 0.198,-0.374 0.242,-0.583 0.104,-0.449 0.417,-0.716 0.831,-0.787 0.463,-0.073 0.913,-0.006 1.225,0.431 0.121,0.178 0.321,0.372 0.518,0.419 0.905,0.244 1.239,0.762 1.016,1.698 -0.039,0.134 -0.049,0.285 -0.07,0.439 C 3.388,-2.387 3.562,-2.432 3.714,-2.51 4.071,-2.702 4.398,-2.961 4.782,-3.1 5.911,-3.508 7.062,-3.872 8.197,-4.258 8.356,-4.312 8.494,-4.397 8.649,-4.463 8.523,-4.565 8.404,-4.646 8.29,-4.751 7.917,-5.135 7.532,-5.516 7.144,-5.957"
       style="fill:#4e6045;fill-opacity:1;fill-rule:nonzero;stroke:none;stroke-width:1.00062997;stroke-dasharray:none"
       transform="matrix(0.35277776,0,0,-0.35277776,83.172729,143.81623)"
       clip-path="url(#clipPath2024)" />
    <path
       id="path2025"
       d="M 0,0 C 0.016,0.601 0.542,0.78 0.957,1 1.225,1.136 1.214,1.173 1.075,1.424 0.683,2.14 0.729,2.501 1.202,2.76 1.357,2.85 1.606,2.887 1.795,2.841 2.452,2.676 3.019,2.365 3.404,1.79 3.617,1.472 3.846,1.15 4.049,0.826 4.085,0.75 4.079,0.631 4.086,0.534 3.98,0.564 3.867,0.561 3.764,0.607 3.655,0.663 3.565,0.775 3.466,0.839 3.379,0.882 3.28,0.901 3.194,0.944 3.188,0.824 3.174,0.715 3.188,0.609 3.211,0.51 3.261,0.414 3.301,0.312 3.185,0.334 3.069,0.357 2.953,0.38 2.747,0.43 2.545,0.495 2.333,0.555 2.336,0.184 2.542,0.005 2.91,-0.051 3.036,-0.067 3.149,-0.149 3.269,-0.199 3.381,-0.239 3.504,-0.271 3.624,-0.321 3.521,-0.447 3.442,-0.63 3.309,-0.689 2.571,-1.025 1.799,-1.14 1,-0.956 0.903,-0.919 0.89,-0.899 0.883,-0.89 0.538,-0.632 -0.012,-0.583 0,0 m 2.811,-1.943 c 0.139,0.351 0.552,0.614 0.87,0.87 0.023,0.029 0.298,-0.146 0.375,-0.281 0.047,-0.114 0.01,-0.295 -0.035,-0.442 -0.03,-0.105 -0.116,-0.192 -0.179,-0.292 0.119,-0.006 0.255,-0.016 0.375,-0.022 0.119,0.08 0.129,0.087 0.149,0.099 0.145,0.127 0.301,0.26 0.446,0.386 C 4.773,-1.824 4.724,-2.029 4.684,-2.229 4.665,-2.328 4.651,-2.438 4.648,-2.54 4.768,-2.504 4.93,-2.51 5,-2.42 c 0.085,0.086 0.075,0.252 0.102,0.384 0.029,0.192 0.058,0.385 0.098,0.584 0.136,-0.182 0.382,-0.334 0.405,-0.52 0.061,-0.52 0.068,-1.047 0.026,-1.564 C 5.628,-3.682 5.36,-3.947 5.244,-3.925 4.912,-3.859 4.452,-3.793 4.285,-3.545 3.876,-2.956 3.661,-2.999 3.384,-3.616 3.344,-3.686 2.966,-3.723 2.887,-3.647 2.353,-3.128 2.626,-2.484 2.811,-1.943 m 2.835,1.22 c 0.219,-0.112 0.441,-0.208 0.66,-0.32 0.103,-0.046 0.209,-0.161 0.289,-0.151 0.142,0.023 0.281,0.116 0.424,0.182 -0.077,0.093 -0.15,0.202 -0.236,0.288 -0.05,0.053 -0.123,0.077 -0.193,0.117 -0.192,0.072 -0.374,0.151 -0.567,0.223 0.153,0.073 0.321,0.144 0.471,0.243 0.056,0.024 0.072,0.107 0.102,0.169 C 6.49,0.059 6.39,0.121 6.281,0.134 6.079,0.157 5.86,0.14 5.654,0.146 5.767,0.322 5.849,0.564 6.015,0.66 6.67,1.013 7.319,1.375 8.142,1.006 8.679,0.762 8.866,0.311 8.973,-0.192 9.009,-0.312 8.884,-0.554 8.774,-0.627 8.354,-0.88 8.434,-1.215 8.644,-1.506 8.949,-1.92 8.907,-2.308 8.579,-2.613 8.255,-2.901 7.808,-2.942 7.419,-2.685 6.938,-2.374 6.49,-2.026 6.022,-1.692 5.942,-1.573 5.929,-1.554 5.922,-1.544 5.829,-1.275 5.739,-0.99 5.646,-0.723 M 4.892,0.298 C 5.17,0.225 5.373,-0.143 5.221,-0.518 5.175,-0.62 5.122,-0.713 5.076,-0.816 4.798,-0.873 4.592,-0.909 4.423,-0.851 4.078,-0.722 3.918,-0.397 4.12,-0.118 4.276,0.101 4.68,0.356 4.892,0.298 M 5.878,1.316 C 5.851,1.313 5.768,1.502 5.728,1.604 5.665,1.764 5.638,1.933 5.584,2.099 5.496,1.909 5.39,1.724 5.314,1.515 5.291,1.441 5.341,1.346 5.348,1.249 5.344,1.146 5.325,1.047 5.305,0.947 5.215,1.018 5.126,1.087 5.04,1.173 4.99,1.226 4.939,1.364 4.903,1.354 4.486,1.248 4.486,1.248 4.26,1.586 3.751,2.194 3.638,2.794 3.855,3.414 3.941,3.63 4.156,3.889 4.358,3.952 4.541,4.002 4.78,3.774 5.005,3.694 5.237,3.605 5.546,3.424 5.682,3.5 6.254,3.869 6.48,3.488 6.697,3.102 7.016,2.495 6.547,1.477 5.878,1.316 M -0.118,-0.897 C 0.503,-1.503 1.266,-1.611 2.094,-1.518 2.2,-1.504 2.313,-1.5 2.426,-1.497 2.386,-1.609 2.336,-1.729 2.287,-1.849 1.934,-2.588 1.875,-3.317 2.394,-4.006 c 0.292,-0.393 0.852,-0.522 1.213,-0.223 0.251,0.226 0.424,0.226 0.65,0.018 0.079,-0.076 0.169,-0.146 0.272,-0.192 0.892,-0.409 1.663,0.049 1.665,0.97 0.003,0.276 0.039,0.544 0.049,0.809 0.245,-0.151 0.481,-0.311 0.723,-0.479 0.537,-0.374 1.154,-0.435 1.707,-0.166 0.431,0.216 0.818,0.648 0.707,1.221 -0.1,0.58 -0.124,1.111 0.163,1.648 0.069,0.132 0.059,0.341 0.013,0.497 C 9.259,1.12 8.741,1.507 7.584,1.625 7.491,1.635 7.408,1.693 7.322,1.736 c 0.056,0.067 0.089,0.147 0.152,0.203 0.218,0.19 0.45,0.359 0.662,0.558 0.718,0.624 1.423,1.269 2.141,1.894 1.353,1.158 2.811,2.051 4.361,2.92 2.785,1.559 5.675,2.931 8.644,4.101 C 22.277,11.57 21.276,11.171 20.346,10.758 19.028,10.171 17.731,9.536 16.459,8.855 15.076,8.116 13.723,7.322 12.402,6.477 11.067,5.622 9.817,4.671 8.585,3.675 8.267,3.419 8.042,3.067 7.768,2.769 7.648,2.646 7.5,2.546 7.357,2.437 7.327,2.589 7.287,2.734 7.28,2.874 7.186,3.831 6.701,4.212 5.767,4.146 5.564,4.127 5.312,4.245 5.14,4.375 4.702,4.686 4.254,4.602 3.841,4.382 3.473,4.18 3.265,3.824 3.312,3.367 3.339,3.155 3.296,2.939 3.273,2.737 3.101,2.823 2.922,2.919 2.749,3.005 2.537,3.107 2.338,3.189 2.146,3.306 1.11,3.863 0.015,2.943 0.315,1.894 0.418,1.546 0.276,1.35 0.008,1.084 -0.683,0.42 -0.898,-0.141 -0.118,-0.897"
       style="fill:#4e6045;fill-opacity:1;fill-rule:nonzero;stroke:none;stroke-width:1.00062997;stroke-dasharray:none"
       transform="matrix(0.35277776,0,0,-0.35277776,83.638502,150.31228)"
       clip-path="url(#clipPath2026)" />
    <path
       id="path2027"
       d="m 0,0 c 0.028,-0.111 0.064,-0.215 0.092,-0.326 0.085,-0.403 -0.185,-0.735 -0.477,-0.757 -0.224,-0.021 -0.582,0.308 -0.699,0.556 -0.152,0.315 0.067,0.612 0.436,0.678 C -0.468,0.181 -0.269,0.106 0,0 m 3.524,-9.406 c 0.556,0.207 1.12,0.424 1.684,0.623 0.137,0.054 0.301,0.031 0.456,0.052 C 5.589,-8.879 5.549,-9.078 5.422,-9.175 4.616,-9.853 3.604,-10.042 2.61,-10.283 c -0.052,-0.001 -0.131,0.075 -0.192,0.099 0.051,0.053 0.093,0.114 0.153,0.158 0.289,0.177 0.579,0.354 0.953,0.62 M -0.628,1.452 C -0.749,1.467 -0.887,1.481 -1.008,1.497 -0.963,1.386 -0.892,1.283 -0.881,1.172 -0.861,1.018 -0.858,0.828 -0.925,0.724 -1.026,0.602 -1.334,0.476 -1.352,0.51 c -0.272,0.313 -0.64,0.651 -0.715,1.028 -0.088,0.575 -0.246,1.27 0.383,1.694 0.094,0.062 0.466,-0.044 0.493,-0.121 0.167,-0.668 0.375,-0.75 0.89,-0.233 0.212,0.219 0.685,0.201 1.03,0.208 C 0.849,3.088 1.07,2.773 1.047,2.626 0.996,2.101 0.893,1.573 0.739,1.062 0.682,0.881 0.408,0.772 0.239,0.615 0.235,0.821 0.24,1.02 0.245,1.218 0.243,1.355 0.283,1.52 0.212,1.622 0.159,1.724 -0.005,1.747 -0.118,1.806 -0.133,1.701 -0.14,1.59 -0.138,1.486 -0.134,1.279 -0.122,1.064 -0.119,0.858 -0.242,1.011 -0.374,1.172 -0.497,1.325 -0.514,1.342 -0.523,1.351 -0.628,1.452 m -0.623,-3.713 c 0.287,0.298 0.287,0.298 0.687,0.115 0.034,-0.016 0.109,0.115 0.169,0.159 0.102,0.07 0.204,0.124 0.307,0.177 0.002,-0.103 0.003,-0.207 -0.012,-0.31 -0.024,-0.095 -0.091,-0.182 -0.082,-0.259 0.039,-0.224 0.111,-0.429 0.166,-0.635 0.084,0.157 0.141,0.322 0.233,0.469 0.059,0.096 0.176,0.271 0.202,0.263 0.642,-0.282 0.929,-1.387 0.499,-1.937 -0.286,-0.349 -0.581,-0.69 -1.089,-0.218 -0.122,0.102 -0.464,-0.025 -0.713,-0.073 -0.241,-0.038 -0.521,-0.223 -0.695,-0.14 -0.191,0.099 -0.36,0.397 -0.407,0.629 -0.106,0.661 0.116,1.242 0.735,1.76 M 1.106,0.708 C 1.636,0.958 2.147,1.226 2.686,1.45 3.122,1.639 3.563,1.518 3.835,1.169 4.109,0.804 4.082,0.407 3.701,0.048 3.438,-0.206 3.298,-0.527 3.673,-0.856 3.77,-0.949 3.852,-1.215 3.794,-1.328 3.596,-1.813 3.328,-2.231 2.745,-2.379 1.854,-2.602 1.269,-2.121 0.675,-1.649 0.526,-1.523 0.487,-1.266 0.406,-1.069 0.613,-1.1 0.83,-1.156 1.037,-1.17 c 0.111,-0.007 0.223,0.038 0.335,0.049 -0.019,0.068 -0.02,0.154 -0.073,0.188 -0.131,0.127 -0.288,0.228 -0.427,0.329 0.206,0.038 0.402,0.083 0.608,0.122 0.078,0.027 0.155,0.037 0.214,0.082 0.102,0.07 0.195,0.167 0.288,0.246 C 1.852,-0.062 1.729,0.056 1.591,0.105 1.513,0.13 1.385,0.033 1.274,0.005 1.034,-0.068 0.794,-0.124 0.555,-0.197 0.696,0.055 0.838,0.324 0.98,0.576 0.988,0.585 1.005,0.603 1.106,0.708 m -5.167,0.167 c 0.834,0.04 1.587,-0.213 2.267,-0.684 0.122,-0.084 0.169,-0.281 0.249,-0.425 -0.129,-0.029 -0.258,-0.039 -0.378,-0.059 -0.129,-0.027 -0.257,-0.091 -0.386,-0.084 -0.379,0.011 -0.617,-0.132 -0.688,-0.503 0.224,0.022 0.438,0.051 0.653,0.064 l 0.362,0.005 c -0.059,-0.095 -0.126,-0.182 -0.168,-0.278 -0.033,-0.103 -0.039,-0.216 -0.054,-0.337 0.094,0.029 0.197,0.03 0.291,0.058 0.112,0.045 0.222,0.141 0.342,0.178 0.111,0.028 0.223,0.003 0.335,0.014 -0.024,-0.095 -0.039,-0.216 -0.09,-0.285 -0.261,-0.289 -0.549,-0.569 -0.82,-0.85 -0.49,-0.507 -1.114,-0.717 -1.802,-0.763 -0.198,-0.013 -0.44,0.069 -0.58,0.187 -0.428,0.346 -0.409,0.716 0.113,1.363 0.186,0.226 0.203,0.261 -0.042,0.446 -0.376,0.295 -0.871,0.57 -0.778,1.175 0.093,0.587 0.653,0.536 1.046,0.732 0.008,0.009 0.025,0.026 0.128,0.046 M 3.385,-8.85 C 2.772,-9.273 2.211,-9.68 1.624,-10.025 1.454,-10.132 1.194,-10.051 0.97,-10.071 0.825,-10.1 0.697,-10.162 0.551,-10.208 c 0.096,-0.093 0.167,-0.212 0.272,-0.279 0.878,-0.51 1.829,-0.243 2.713,-0.099 1.038,0.183 2.047,0.544 2.658,1.545 0.017,0.035 0.12,0.054 0.146,0.028 0.804,-0.639 1.573,-1.314 2.385,-1.946 1.501,-1.144 2.858,-2.454 4.518,-3.38 1.217,-0.684 2.31,-1.603 3.51,-2.322 1.34,-0.803 2.723,-1.562 4.129,-2.242 1.545,-0.747 3.149,-1.4 4.745,-2.06 0.165,-0.074 0.413,0.025 0.627,0.055 -0.149,0.143 -0.273,0.365 -0.455,0.439 -1.327,0.553 -2.695,1.029 -3.997,1.642 -1.294,0.623 -2.53,1.376 -3.773,2.102 -1.297,0.761 -2.584,1.53 -3.83,2.36 -1.594,1.065 -3.129,2.209 -4.681,3.317 -0.226,0.168 -0.394,0.415 -0.613,0.592 -0.943,0.74 -1.894,1.455 -2.811,2.223 -0.306,0.261 -0.536,0.619 -0.8,0.923 -0.342,0.382 -0.693,0.754 -1.019,1.153 -0.607,0.756 -1.197,1.528 -1.805,2.284 -0.176,0.237 -0.378,0.449 -0.563,0.679 -0.053,0.067 -0.071,0.153 -0.115,0.23 0.094,0.027 0.187,0.072 0.282,0.065 1.181,-0.091 1.77,0.204 2.252,1.176 0.075,0.148 0.123,0.355 0.077,0.501 -0.191,0.59 -0.071,1.118 0.134,1.681 C 4.751,1.014 4.441,1.516 4.048,1.811 3.542,2.18 2.913,2.229 2.307,1.951 2.034,1.826 1.769,1.71 1.495,1.602 1.534,1.869 1.546,2.145 1.593,2.421 1.757,3.345 1.066,3.943 0.098,3.694 -0.013,3.666 -0.116,3.613 -0.209,3.551 -0.473,3.383 -0.646,3.414 -0.857,3.686 -1.165,4.051 -1.75,4.022 -2.114,3.681 -2.757,3.084 -2.831,2.343 -2.609,1.537 -2.582,1.408 -2.553,1.28 -2.534,1.16 -2.646,1.184 -2.759,1.207 -2.862,1.24 -3.676,1.484 -4.46,1.513 -5.191,1.018 -6.11,0.399 -5.996,-0.201 -5.422,-0.991 c 0.22,-0.316 0.327,-0.537 0.161,-0.867 -0.49,-0.998 0.442,-2.119 1.58,-1.746 0.214,0.082 0.429,0.128 0.66,0.193 0.188,0.055 0.385,0.119 0.574,0.174 -0.014,-0.207 -0.01,-0.431 -0.075,-0.639 -0.13,-0.449 0.015,-0.843 0.347,-1.112 0.375,-0.295 0.808,-0.459 1.303,-0.227 0.197,0.098 0.471,0.172 0.67,0.115 0.925,-0.233 1.479,0.061 1.746,1.003 0.033,0.139 0.099,0.278 0.157,0.425 C 1.824,-3.808 1.955,-3.934 2.052,-4.078 2.273,-4.428 2.436,-4.82 2.708,-5.135 3.507,-6.059 4.35,-6.956 5.167,-7.862 5.28,-7.989 5.36,-8.135 5.466,-8.271 5.303,-8.299 5.157,-8.311 5.003,-8.348 4.48,-8.503 3.949,-8.65 3.385,-8.85"
       style="fill:#4e6045;fill-opacity:1;fill-rule:nonzero;stroke:none;stroke-width:1.00062997;stroke-dasharray:none"
       transform="matrix(0.35277776,0,0,-0.35277776,68.343506,141.86424)"
       clip-path="url(#clipPath2028)" />
    <path
       id="path2029"
       d="M 0,0 C -0.078,0.267 -0.129,0.438 -0.172,0.583 -0.207,0.729 -0.228,0.85 -0.261,1.01 -0.329,1.155 -0.409,1.247 -0.496,1.179 -0.649,1.055 -0.619,0.518 -0.534,0.21 c 0.049,-0.293 0.16,-0.569 0.26,-0.85 0.18,-0.344 0.257,-0.488 0.589,-1.015 0.477,-0.689 0.486,-0.686 1.055,-1.295 0.594,-0.582 0.547,-0.641 1.208,-1.154 0.678,-0.488 0.707,-0.445 1.419,-0.87 0.724,-0.403 0.694,-0.462 1.447,-0.816 0.762,-0.334 0.787,-0.271 1.562,-0.558 0.781,-0.27 0.766,-0.316 1.557,-0.552 0.794,-0.226 0.793,-0.23 1.591,-0.433 0.692,-0.172 0.786,-0.188 1.319,-0.312 0.181,-0.023 0.361,-0.035 0.51,-0.019 0.317,0.035 0.092,0.225 -0.142,0.332 -0.612,0.281 -1.37,0.387 -2.032,0.579 -0.066,0.02 -0.614,0.18 -1.112,0.326 C 7.918,-6.193 7.916,-6.2 7.149,-5.935 6.39,-5.652 6.39,-5.651 5.649,-5.326 4.919,-4.981 4.922,-4.971 4.218,-4.578 3.527,-4.166 3.49,-4.221 2.836,-3.749 2.2,-3.255 2.208,-3.241 1.638,-2.681 1.093,-2.097 1.087,-2.098 0.634,-1.443 0.532,-1.273 0.454,-1.146 0.398,-1.035 0.351,-0.921 0.312,-0.829 0.274,-0.737 0.192,-0.557 0.14,-0.366 0,0"
       style="fill:#4e6045;fill-opacity:1;fill-rule:nonzero;stroke:none;stroke-width:1.00062997;stroke-dasharray:none"
       transform="matrix(0.35277776,0,0,-0.35277776,95.003028,143.33116)"
       clip-path="url(#clipPath2030)" />
    <path
       id="path2031"
       d="M 0,0 C -0.111,0.294 -0.125,0.385 -0.149,0.565 -0.193,0.648 -0.257,0.712 -0.354,0.681 -0.542,0.624 -0.552,0.264 -0.503,0.059 c 0.035,-0.192 0.112,-0.373 0.2,-0.545 0.142,-0.208 0.216,-0.285 0.483,-0.579 0.186,-0.193 0.293,-0.274 0.399,-0.355 0.107,-0.077 0.213,-0.156 0.436,-0.293 0.448,-0.262 0.418,-0.326 0.882,-0.548 0.464,-0.214 0.486,-0.165 0.936,-0.381 0.441,-0.226 0.414,-0.28 0.813,-0.545 0.193,-0.133 0.291,-0.202 0.39,-0.271 0.098,-0.067 0.196,-0.139 0.343,-0.323 0.143,-0.186 0.186,-0.299 0.233,-0.408 0.047,-0.115 0.093,-0.228 0.184,-0.453 0.204,-0.462 0.176,-0.474 0.438,-0.95 0.123,-0.204 0.21,-0.312 0.292,-0.406 0.085,-0.093 0.162,-0.175 0.317,-0.295 0.115,-0.063 0.243,-0.103 0.353,-0.098 0.228,0.022 0.101,0.208 0.015,0.32 -0.239,0.287 -0.531,0.585 -0.697,0.967 -0.016,0.039 -0.147,0.364 -0.265,0.659 -0.102,0.237 -0.164,0.358 -0.228,0.475 -0.066,0.117 -0.13,0.241 -0.298,0.459 -0.172,0.215 -0.271,0.31 -0.369,0.403 -0.1,0.091 -0.2,0.184 -0.418,0.338 C 3.492,-2.477 3.494,-2.472 3.03,-2.233 2.564,-2.01 2.537,-2.073 2.079,-1.862 1.627,-1.646 1.632,-1.634 1.21,-1.388 1.002,-1.26 0.906,-1.187 0.81,-1.117 0.715,-1.044 0.621,-0.971 0.456,-0.8 0.293,-0.627 0.24,-0.519 0.186,-0.416 0.138,-0.31 0.085,-0.206 0,0"
       style="fill:#4e6045;fill-opacity:1;fill-rule:nonzero;stroke:none;stroke-width:1.00062997;stroke-dasharray:none"
       transform="matrix(0.35277776,0,0,-0.35277776,94.952191,143.15509)"
       clip-path="url(#clipPath2032)" />
    <path
       id="path2033"
       d="m 0,0 c 0.096,-0.379 0.125,-0.491 0.181,-0.713 0.063,-0.099 0.138,-0.156 0.226,-0.099 0.165,0.105 0.125,0.465 0.094,0.68 C 0.474,0.067 0.426,0.264 0.379,0.459 0.291,0.708 0.237,0.807 0.098,1.209 -0.097,1.747 -0.109,1.743 -0.337,2.268 -0.58,2.785 -0.51,2.821 -0.787,3.327 -0.933,3.579 -1.004,3.688 -1.117,3.822 -1.172,3.885 -1.23,3.944 -1.317,4.014 -1.404,4.073 -1.522,4.184 -1.771,4.175 -2.014,4.151 -2.149,3.979 -2.199,3.864 -2.253,3.745 -2.27,3.654 -2.282,3.567 -2.293,3.481 -2.297,3.394 -2.289,3.296 c 0.008,-0.091 0.018,-0.201 0.044,-0.345 0.118,-0.575 0.183,-0.559 0.362,-1.11 0.204,-0.542 0.159,-0.564 0.423,-1.085 0.287,-0.508 0.282,-0.513 0.624,-0.987 0.312,-0.4 0.363,-0.447 0.633,-0.727 0.102,-0.082 0.217,-0.146 0.323,-0.178 0.224,-0.066 0.179,0.16 0.092,0.313 -0.227,0.402 -0.608,0.741 -0.853,1.137 -0.025,0.04 -0.226,0.367 -0.386,0.677 -0.246,0.487 -0.252,0.486 -0.445,0.997 -0.168,0.52 -0.165,0.522 -0.275,1.056 -0.02,0.135 -0.035,0.236 -0.048,0.32 -0.01,0.078 -0.01,0.134 -0.007,0.188 0.003,0.051 0.013,0.1 0.029,0.133 0.015,0.034 0.025,0.034 0.042,0.039 C -1.72,3.729 -1.654,3.706 -1.606,3.668 -1.555,3.632 -1.512,3.593 -1.47,3.551 -1.393,3.473 -1.303,3.346 -1.167,3.108 -0.899,2.62 -0.917,2.61 -0.681,2.107 -0.46,1.599 -0.451,1.602 -0.262,1.079 -0.085,0.552 -0.143,0.533 0,0"
       style="fill:#4e6045;fill-opacity:1;fill-rule:nonzero;stroke:none;stroke-width:1.00062997;stroke-dasharray:none"
       transform="matrix(0.35277776,0,0,-0.35277776,75.537383,148.06886)"
       clip-path="url(#clipPath2034)" />
    <path
       id="path2035"
       d="M 0,0 C 0.188,0.234 0.238,0.309 0.354,0.442 0.38,0.532 0.374,0.617 0.283,0.663 0.114,0.75 -0.109,0.561 -0.233,0.437 -0.351,0.326 -0.453,0.199 -0.552,0.07 -0.661,-0.112 -0.689,-0.199 -0.859,-0.495 -1.074,-0.9 -1.065,-0.906 -1.235,-1.331 c -0.152,-0.433 -0.227,-0.412 -0.332,-0.865 -0.049,-0.227 -0.05,-0.367 -0.032,-0.503 0.027,-0.132 0.034,-0.293 0.231,-0.532 0.105,-0.117 0.229,-0.176 0.329,-0.202 0.102,-0.027 0.184,-0.029 0.263,-0.024 0.15,0.012 0.336,0.059 0.534,0.27 0.183,0.215 0.21,0.335 0.253,0.445 0.039,0.112 0.078,0.223 0.165,0.439 0.159,0.436 0.206,0.424 0.306,0.883 0.076,0.464 0.08,0.465 0.093,0.935 C 0.567,-0.077 0.548,-0.023 0.503,0.287 0.469,0.387 0.42,0.481 0.353,0.548 0.214,0.687 0.116,0.51 0.094,0.373 0.029,0.01 0.132,-0.372 0.091,-0.734 0.089,-0.771 0.05,-1.065 -0.002,-1.33 -0.092,-1.743 -0.086,-1.746 -0.231,-2.144 -0.31,-2.34 -0.36,-2.433 -0.409,-2.526 c -0.05,-0.091 -0.098,-0.191 -0.209,-0.32 -0.114,-0.119 -0.18,-0.126 -0.242,-0.138 -0.064,-0.002 -0.105,-0.01 -0.175,0.06 -0.073,0.089 -0.098,0.167 -0.119,0.249 -0.018,0.085 -0.029,0.181 0.016,0.393 0.098,0.42 0.117,0.416 0.259,0.82 0.16,0.399 0.153,0.403 0.356,0.783 C -0.305,-0.308 -0.253,-0.341 0,0"
       style="fill:#4e6045;fill-opacity:1;fill-rule:nonzero;stroke:none;stroke-width:1.00062997;stroke-dasharray:none"
       transform="matrix(0.35277776,0,0,-0.35277776,81.042304,150.17275)"
       clip-path="url(#clipPath2036)" />
    <path
       id="path2037"
       d="m 0,0 c -0.095,-0.254 -0.116,-0.43 -0.149,-0.572 -0.029,-0.144 -0.053,-0.261 -0.084,-0.415 0.008,-0.156 0.049,-0.257 0.157,-0.223 0.201,0.064 0.335,0.506 0.418,0.769 0.081,0.241 0.18,0.479 0.265,0.72 0.085,0.325 0.136,0.457 0.353,0.956 0.149,0.336 0.257,0.487 0.337,0.652 0.088,0.161 0.166,0.328 0.378,0.629 0.403,0.616 0.488,0.552 0.938,1.126 0.245,0.27 0.364,0.409 0.48,0.552 C 3.205,4.34 3.333,4.472 3.604,4.72 3.739,4.844 3.842,4.935 3.932,5.006 4.026,5.07 4.103,5.122 4.18,5.174 4.336,5.271 4.481,5.382 4.778,5.594 5.381,6.005 5.341,6.068 5.98,6.432 6.294,6.623 6.476,6.67 6.643,6.746 6.814,6.812 6.977,6.896 7.32,7.023 7.997,7.301 8.006,7.273 8.701,7.495 9.008,7.568 9.183,7.609 9.339,7.646 9.417,7.665 9.491,7.683 9.575,7.703 9.66,7.716 9.756,7.73 9.876,7.748 c 0.156,0.041 0.31,0.093 0.429,0.161 0.257,0.144 0.011,0.243 -0.228,0.261 C 9.767,8.193 9.434,8.167 9.11,8.083 8.947,8.044 8.784,8.005 8.622,7.967 8.463,7.918 8.306,7.87 8.153,7.824 8.122,7.815 7.978,7.774 7.784,7.721 7.591,7.662 7.355,7.564 7.129,7.478 6.772,7.344 6.609,7.244 6.437,7.163 6.271,7.072 6.089,7.009 5.764,6.812 5.103,6.437 5.106,6.432 4.478,6.004 4.17,5.782 4.026,5.656 3.874,5.544 3.798,5.485 3.723,5.428 3.629,5.354 3.541,5.274 3.435,5.179 3.294,5.051 3.013,4.794 2.884,4.654 2.77,4.501 2.652,4.351 2.531,4.205 2.277,3.924 1.81,3.328 1.772,3.355 1.355,2.72 1.136,2.409 1.055,2.236 0.963,2.069 0.879,1.899 0.767,1.743 0.613,1.396 0.458,1.049 0.367,0.881 0.275,0.713 0.198,0.538 0.124,0.362 0,0"
       style="fill:#4e6045;fill-opacity:1;fill-rule:nonzero;stroke:none;stroke-width:1.00062997;stroke-dasharray:none"
       transform="matrix(0.35277776,0,0,-0.35277776,92.6869,148.46503)"
       clip-path="url(#clipPath2038)" />
    <path
       id="path2039"
       d="m 0,0 c -0.138,-0.287 -0.144,-0.385 -0.185,-0.562 0.02,-0.094 0.071,-0.158 0.173,-0.15 0.188,0.017 0.273,0.237 0.351,0.358 0.069,0.111 0.128,0.225 0.207,0.328 C 0.63,0.12 0.645,0.2 0.843,0.402 1.123,0.664 1.121,0.67 1.441,0.898 1.769,1.12 1.819,1.049 2.159,1.276 c 0.34,0.237 0.316,0.271 0.64,0.536 0.312,0.284 0.368,0.233 0.639,0.584 0.131,0.181 0.166,0.293 0.203,0.399 0.032,0.11 0.064,0.217 0.126,0.427 0.098,0.42 0.135,0.417 0.177,0.831 0.034,0.406 0.029,0.408 0.078,0.789 0.056,0.32 0.063,0.361 0.146,0.58 C 4.183,5.5 4.191,5.581 4.184,5.66 4.167,5.835 3.996,5.812 3.878,5.716 3.737,5.59 3.651,5.404 3.605,5.218 3.56,5.03 3.548,4.841 3.521,4.666 3.514,4.632 3.471,4.342 3.453,4.091 3.415,3.7 3.429,3.697 3.345,3.336 3.293,3.161 3.255,3.081 3.215,3 3.172,2.92 3.133,2.839 3.025,2.69 2.8,2.399 2.785,2.41 2.503,2.155 2.206,1.912 2.239,1.865 1.913,1.639 1.579,1.415 1.568,1.442 1.223,1.21 0.884,0.966 0.884,0.965 0.571,0.672 0.419,0.52 0.342,0.441 0.262,0.362 0.185,0.282 0.106,0.199 0,0"
       style="fill:#4e6045;fill-opacity:1;fill-rule:nonzero;stroke:none;stroke-width:1.00062997;stroke-dasharray:none"
       transform="matrix(0.35277776,0,0,-0.35277776,92.663968,148.64279)"
       clip-path="url(#clipPath2040)" />
    <path
       id="path2041"
       d="m 0,0 c 0.112,-0.315 0.165,-0.399 0.261,-0.569 0.078,-0.065 0.159,-0.084 0.23,-0.009 0.136,0.142 0.035,0.386 0.008,0.545 C 0.459,0.108 0.425,0.251 0.395,0.395 0.358,0.484 0.345,0.552 0.318,0.632 0.293,0.712 0.269,0.808 0.258,0.965 0.229,1.387 0.223,1.389 0.254,1.812 c 0.032,0.21 0.063,0.313 0.11,0.411 0.043,0.098 0.08,0.197 0.147,0.394 0.137,0.393 0.097,0.411 0.292,0.784 0.11,0.18 0.177,0.262 0.256,0.333 0.074,0.075 0.146,0.149 0.286,0.3 0.287,0.291 0.242,0.344 0.583,0.595 0.355,0.232 0.38,0.19 0.758,0.382 0.388,0.18 0.392,0.172 0.795,0.326 0.353,0.128 0.401,0.146 0.678,0.24 C 4.246,5.624 4.328,5.682 4.386,5.752 4.508,5.901 4.333,5.986 4.187,5.994 3.806,6.013 3.431,5.814 3.071,5.691 3.035,5.681 2.732,5.582 2.469,5.454 2.061,5.246 2.063,5.239 1.676,4.986 1.303,4.71 1.298,4.709 0.969,4.374 0.809,4.202 0.74,4.107 0.668,4.014 0.593,3.924 0.53,3.824 0.408,3.624 0.191,3.208 0.245,3.183 0.093,2.749 0.02,2.53 -0.005,2.417 -0.036,2.306 -0.071,2.195 -0.089,2.081 -0.123,1.852 -0.157,1.39 -0.154,1.389 -0.123,0.927 -0.069,0.468 -0.124,0.455 0,0"
       style="fill:#4e6045;fill-opacity:1;fill-rule:nonzero;stroke:none;stroke-width:1.00062997;stroke-dasharray:none"
       transform="matrix(0.35277776,0,0,-0.35277776,92.485533,148.69931)"
       clip-path="url(#clipPath2042)" />
    <path
       id="path2043"
       d="m 0,0 c -0.264,0.031 -0.342,0.035 -0.499,0.046 -0.084,-0.05 -0.152,-0.136 -0.155,-0.282 -0.005,-0.275 0.24,-0.363 0.387,-0.419 0.137,-0.049 0.28,-0.067 0.421,-0.096 0.19,-0.004 0.271,0.043 0.573,0.022 0.406,-0.001 0.407,0 0.812,0.025 0.405,0.019 0.416,-0.085 0.825,-0.039 0.405,0.069 0.393,0.131 0.79,0.223 0.395,0.098 0.422,0.005 0.816,0.129 0.391,0.134 0.355,0.229 0.731,0.384 0.368,0.175 0.407,0.098 0.767,0.298 0.362,0.196 0.36,0.2 0.709,0.42 0.29,0.211 0.331,0.235 0.541,0.413 C 6.772,1.203 6.814,1.293 6.82,1.395 6.832,1.607 6.6,1.678 6.46,1.664 6.096,1.624 5.88,1.332 5.59,1.185 5.562,1.17 5.325,1.049 5.11,0.938 4.781,0.754 4.779,0.756 4.437,0.594 4.087,0.449 4.085,0.453 3.727,0.331 3.366,0.217 3.362,0.231 2.995,0.142 2.628,0.055 2.644,-0.029 2.267,-0.094 1.887,-0.136 1.885,-0.118 1.505,-0.137 1.126,-0.16 1.125,-0.156 0.746,-0.155 0.365,-0.133 0.372,-0.048 0,0"
       style="fill:#4e6045;fill-opacity:1;fill-rule:nonzero;stroke:none;stroke-width:1.00062997;stroke-dasharray:none"
       transform="matrix(0.35277776,0,0,-0.35277776,68.980305,148.31654)"
       clip-path="url(#clipPath2044)" />
    <path
       id="path2045"
       d="m 0,0 c -0.242,-0.021 -0.312,-0.035 -0.454,-0.038 -0.072,-0.059 -0.131,-0.149 -0.123,-0.296 0.015,-0.274 0.29,-0.344 0.455,-0.36 0.153,-0.022 0.307,-0.009 0.458,0.007 0.193,0.057 0.263,0.115 0.56,0.207 0.396,0.138 0.389,0.155 0.76,0.332 0.364,0.186 0.422,0.087 0.771,0.294 0.344,0.209 0.305,0.271 0.64,0.479 0.334,0.203 0.384,0.121 0.715,0.306 0.332,0.173 0.29,0.263 0.635,0.405 C 4.764,1.459 4.786,1.39 5.133,1.459 5.483,1.507 5.486,1.498 5.827,1.483 6.116,1.447 6.155,1.442 6.363,1.373 6.44,1.372 6.524,1.385 6.612,1.421 6.806,1.5 6.805,1.727 6.711,1.859 6.592,2.023 6.404,2.111 6.21,2.153 6.016,2.196 5.817,2.191 5.631,2.208 5.595,2.213 5.283,2.237 5.008,2.188 4.582,2.103 4.583,2.091 4.18,1.947 3.786,1.786 3.785,1.79 3.417,1.599 3.058,1.398 3.051,1.411 2.707,1.201 2.368,0.991 2.419,0.91 2.085,0.706 1.751,0.509 1.738,0.533 1.401,0.36 1.062,0.199 1.065,0.187 0.716,0.064 0.363,-0.04 0.342,0.047 0,0"
       style="fill:#4e6045;fill-opacity:1;fill-rule:nonzero;stroke:none;stroke-width:1.00062997;stroke-dasharray:none"
       transform="matrix(0.35277776,0,0,-0.35277776,68.924353,148.27693)"
       clip-path="url(#clipPath2046)" />
    <path
       id="path2047"
       d="m 0,0 c -0.165,0.133 -0.222,0.163 -0.316,0.247 -0.087,0.001 -0.19,-0.029 -0.285,-0.14 -0.18,-0.207 -0.045,-0.42 0.048,-0.539 0.085,-0.108 0.192,-0.199 0.301,-0.283 0.164,-0.08 0.247,-0.084 0.502,-0.205 0.353,-0.143 0.359,-0.129 0.724,-0.223 0.367,-0.071 0.353,-0.185 0.737,-0.212 0.385,-0.007 0.383,0.065 0.757,0.103 0.371,0.056 0.39,-0.039 0.758,0.056 0.362,0.107 0.331,0.2 0.673,0.333 0.337,0.142 0.369,0.076 0.698,0.239 0.323,0.169 0.327,0.162 0.642,0.344 0.269,0.16 0.3,0.19 0.501,0.319 0.052,0.065 0.093,0.145 0.105,0.24 C 5.868,0.482 5.663,0.59 5.531,0.597 5.185,0.614 4.969,0.354 4.702,0.236 4.675,0.224 4.452,0.133 4.259,0.034 3.957,-0.116 3.96,-0.126 3.651,-0.257 3.34,-0.377 3.337,-0.369 3.021,-0.464 2.703,-0.545 2.696,-0.53 2.379,-0.578 2.062,-0.609 2.065,-0.705 1.736,-0.699 1.409,-0.676 1.411,-0.647 1.095,-0.586 0.784,-0.507 0.779,-0.516 0.484,-0.396 0.197,-0.256 0.243,-0.175 0,0"
       style="fill:#4e6045;fill-opacity:1;fill-rule:nonzero;stroke:none;stroke-width:1.00062997;stroke-dasharray:none"
       transform="matrix(0.35277776,0,0,-0.35277776,65.574339,145.6342)"
       clip-path="url(#clipPath2048)" />
    <path
       id="path2049"
       d="M 0,0 C -0.201,0.082 -0.263,0.1 -0.376,0.159 -0.461,0.14 -0.556,0.09 -0.624,-0.04 c -0.13,-0.242 0.072,-0.438 0.208,-0.526 0.124,-0.088 0.265,-0.145 0.405,-0.195 0.195,-0.028 0.281,-0.006 0.582,-0.036 0.406,-0.019 0.407,-0.002 0.804,0.039 0.391,0.059 0.419,-0.052 0.803,0.05 0.378,0.113 0.354,0.183 0.714,0.309 0.356,0.129 0.39,0.039 0.738,0.164 0.345,0.118 0.314,0.214 0.661,0.311 0.345,0.084 0.36,0.014 0.7,0.058 C 5.33,0.159 5.332,0.151 5.658,0.125 5.935,0.083 5.972,0.079 6.171,0.013 6.246,0.013 6.327,0.026 6.412,0.064 6.599,0.148 6.6,0.373 6.512,0.502 6.401,0.662 6.225,0.746 6.043,0.789 5.86,0.832 5.673,0.832 5.5,0.855 5.465,0.861 5.173,0.898 4.913,0.868 4.508,0.816 4.51,0.804 4.121,0.709 3.74,0.603 3.739,0.606 3.374,0.481 3.015,0.353 3.009,0.366 2.659,0.239 2.313,0.118 2.343,0.027 1.996,-0.077 1.647,-0.169 1.643,-0.143 1.299,-0.194 0.956,-0.229 0.954,-0.241 0.614,-0.225 0.279,-0.185 0.294,-0.097 0,0"
       style="fill:#4e6045;fill-opacity:1;fill-rule:nonzero;stroke:none;stroke-width:1.00062997;stroke-dasharray:none"
       transform="matrix(0.35277776,0,0,-0.35277776,65.27409,145.52014)"
       clip-path="url(#clipPath2050)" />
    <path
       id="path2051"
       d="m 0,0 c -0.536,-0.37 -0.671,-0.511 -0.959,-0.76 -0.1,-0.164 -0.125,-0.307 0.02,-0.378 0.267,-0.129 0.723,0.186 1.01,0.353 0.266,0.154 0.52,0.328 0.789,0.478 0.163,0.119 0.278,0.204 0.423,0.3 0.143,0.101 0.318,0.209 0.61,0.358 0.394,0.196 0.591,0.293 0.794,0.38 0.199,0.093 0.402,0.18 0.815,0.332 0.417,0.144 0.636,0.183 0.855,0.212 0.219,0.037 0.437,0.062 0.863,0.161 0.426,0.092 0.639,0.143 0.852,0.195 0.214,0.052 0.429,0.098 0.866,0.14 0.875,0.062 0.879,-0.039 1.749,-0.06 0.868,-0.054 0.88,0.046 1.749,-0.089 0.431,-0.078 0.643,-0.14 0.851,-0.211 0.209,-0.067 0.416,-0.139 0.835,-0.263 0.416,-0.132 0.622,-0.206 0.824,-0.287 0.205,-0.076 0.406,-0.162 0.806,-0.336 0.344,-0.158 0.537,-0.251 0.707,-0.34 0.174,-0.084 0.323,-0.167 0.576,-0.311 0.183,-0.07 0.363,-0.141 0.533,-0.156 0.362,-0.04 0.234,0.278 0.035,0.494 -0.522,0.561 -1.346,0.862 -2.049,1.176 -0.069,0.036 -0.659,0.296 -1.221,0.468 -0.441,0.131 -0.665,0.185 -0.89,0.235 C 11.22,2.145 10.994,2.188 10.542,2.27 9.633,2.409 9.632,2.415 8.714,2.472 7.794,2.494 7.792,2.513 6.873,2.447 6.414,2.403 6.187,2.35 5.965,2.29 5.741,2.231 5.52,2.173 5.072,2.076 4.626,1.972 4.403,1.922 4.182,1.863 3.958,1.81 3.738,1.747 3.304,1.598 2.874,1.438 2.663,1.349 2.454,1.254 2.244,1.163 2.037,1.063 1.627,0.859 0.818,0.431 0.772,0.506 0,0"
       style="fill:#4e6045;fill-opacity:1;fill-rule:nonzero;stroke:none;stroke-width:1.00062997;stroke-dasharray:none"
       transform="matrix(0.35277776,0,0,-0.35277776,96.944503,147.41153)"
       clip-path="url(#clipPath2052)" />
    <path
       id="path2053"
       d="M 0,0 C 0.042,0.02 0.102,0.014 0.107,0.023 0.15,0.074 0.259,0.076 0.383,0.151 0.5,0.223 0.511,0.383 0.406,0.506 0.305,0.629 0.13,0.686 0,0.69 -0.238,0.717 -0.541,0.563 -0.663,0.301 -0.726,0.129 -0.713,0.004 -0.687,-0.128 c 0.032,-0.131 0.074,-0.282 0.241,-0.47 0.117,-0.125 0.249,-0.182 0.347,-0.208 0.102,-0.025 0.186,-0.03 0.266,-0.023 0.155,0.02 0.322,0.043 0.56,0.243 0.226,0.222 0.281,0.386 0.339,0.533 C 1.111,0.099 1.155,0.277 1.031,0.578 0.892,0.874 0.722,0.972 0.589,1.044 0.446,1.11 0.302,1.172 0.006,1.2 -0.291,1.214 -0.448,1.175 -0.606,1.129 -0.686,1.103 -0.766,1.067 -0.854,1.001 -0.941,0.937 -1.043,0.832 -1.117,0.674 -1.253,0.352 -1.207,0.177 -1.171,0.024 c 0.052,-0.151 0.092,-0.306 0.296,-0.561 0.222,-0.242 0.417,-0.299 0.579,-0.34 0.166,-0.03 0.355,-0.049 0.649,0.106 0.284,0.171 0.383,0.338 0.462,0.502 0.038,0.083 0.065,0.178 0.074,0.298 C 0.897,0.147 0.886,0.309 0.802,0.479 0.646,0.766 0.491,0.851 0.365,0.926 0.232,0.992 0.108,1.048 -0.134,1.059 -0.297,1.036 -0.453,0.94 -0.515,0.819 -0.577,0.684 -0.507,0.621 -0.436,0.573 -0.362,0.529 -0.286,0.493 -0.238,0.464 -0.119,0.395 -0.039,0.34 0.052,0.279 0.142,0.217 0.194,0.139 0.176,0.077 0.178,0.063 0.132,-0.049 -0.013,-0.129 -0.121,-0.185 -0.18,-0.185 -0.226,-0.184 c -0.046,0.007 -0.086,0.004 -0.156,0.079 -0.066,0.082 -0.079,0.155 -0.086,0.216 -0.004,0.062 -0.004,0.136 0.04,0.239 0.047,0.094 0.099,0.111 0.149,0.136 0.052,0.019 0.109,0.042 0.24,0.036 C 0.092,0.509 0.159,0.497 0.227,0.482 0.292,0.463 0.368,0.443 0.432,0.309 0.488,0.172 0.474,0.092 0.458,0.03 0.439,-0.033 0.42,-0.091 0.343,-0.165 0.254,-0.241 0.185,-0.251 0.135,-0.259 0.082,-0.261 0.029,-0.262 -0.028,-0.204 -0.094,-0.129 -0.074,-0.052 -0.051,-0.022 -0.023,0.016 0.004,0.003 0,0"
       style="fill:#4e6045;fill-opacity:1;fill-rule:nonzero;stroke:none;stroke-width:1.00062997;stroke-dasharray:none"
       transform="matrix(0.35277776,0,0,-0.35277776,96.643233,147.94344)"
       clip-path="url(#clipPath2054)" />
  </g>
</svg>
